<svg xmlns="http://www.w3.org/2000/svg" style="display: none;">
    <symbol id="icon-facebook" viewBox="0 0 38 38">
        <path d="M38 38V0H0v38h17.2V21.9H14v-5.7h3.2v-3.7c0-2.6 1.2-6.7 6.7-6.7h4.9v5.5h-3.6c-.6 0-1.4.3-1.4 1.5v3.3h5.1l-.6 5.7h-4.5v16.1H38z"/>
    </symbol>
    <symbol id="icon-instagram" viewBox="0 0 18 18">
        <path d="M5 0a5 5 0 0 0-5 5v8a5 5 0 0 0 5 5h8a5 5 0 0 0 5-5V5a5 5 0 0 0-5-5zm10 2a1 1 0 1 1-1 1 1 1 0 0 1 1-1zM9 4a5 5 0 1 1-5 5 5 5 0 0 1 5-5zm0 2a3 3 0 1 0 3 3 3 3 0 0 0-3-3z"/>
    </symbol>
    <symbol id="icon-account" viewBox="0 0 16 18">
        <path d="m15.3 17c-.2-3.9-3.3-7-7.2-7.2-4.2-.3-7.8 3-8.1 7.2v.7h15.4zm-13.9-.6c.5-3.2 3.4-5.5 6.6-5.3 3 .2 5.4 2.4 5.9 5.3z"/><path d="m7.7 8.9c2.5 0 4.5-2 4.5-4.4 0-2.5-2-4.5-4.5-4.5s-4.5 2-4.5 4.5c0 2.4 2 4.4 4.5 4.4zm0-7.6c1.7 0 3.1 1.4 3.1 3.2 0 1.7-1.4 3.1-3.1 3.1s-3.2-1.4-3.2-3.1c0-1.8 1.5-3.2 3.2-3.2z"/>
    </symbol>
    <symbol id="icon-email" viewBox="0 0 13.41 8.62">
        <path d="M13.37.18L6.78 4.75h-.06a.07.07 0 0 1-.06 0L0 .18a.09.09 0 0 1 0-.12A.1.1 0 0 1 .1 0h13.21a.1.1 0 0 1 .1.06.09.09 0 0 1-.04.12z"/><path d="M13.41 1.73v6.79a.1.1 0 0 1-.1.1H.21a.09.09 0 0 1-.1-.1L0 1.73a.09.09 0 0 1 .06-.09.1.1 0 0 1 .1 0l6.56 4.74 6.53-4.73a.1.1 0 0 1 .1 0 .09.09 0 0 1 .06.08z"/>
    </symbol>
    <symbol id="icon-arrow" viewBox="0 0 16.7 31.9">
        <path d="M.7 32l-.7-.8L15.3 16 0 .7.7 0l16 16-16 16z"/>
    </symbol>
    <symbol id="icon-chat-opened" viewBox="0 0 57.6 32.4">
        <path d="M54.8 21.9a13.7 13.7 0 0 0 2.2-7.5C57 6.4 50.2 0 41.9 0A15.3 15.3 0 0 0 28 8.3a15.7 15.7 0 0 0-11.4-4.9C8.2 3.4 1.3 10 1.3 18a13.8 13.8 0 0 0 1.3 5.8l-2.6 6 8.2.3a16 16 0 0 0 8.5 2.4 15.4 15.4 0 0 0 14-8.4 15.5 15.5 0 0 0 11.2 4.8 15.8 15.8 0 0 0 5.8-1.2l8.8 1.2 1-1.5zm-44.7-2.2a1.8 1.8 0 1 1 1.7-1.8 1.8 1.8 0 0 1-1.7 1.8zm6.3 0a1.8 1.8 0 1 1 1.8-1.8 1.8 1.8 0 0 1-1.8 1.8zm6.2 0a1.8 1.8 0 1 1 1.8-1.8 1.8 1.8 0 0 1-1.8 1.8zm25 6h-.4a13.8 13.8 0 0 1-5.3 1A13.5 13.5 0 0 1 31.4 22 13.8 13.8 0 0 0 29.5 10 13.2 13.2 0 0 1 42 2C49 2 55 7.5 55 14.4a11.8 11.8 0 0 1-2.2 6.8v1l2 4.3z"/><path d="M39.9 16.6l-3.1-3.1-2.1 2.1 4 4 1.8.1L49 14l-1.7-2.4-7.3 5z"/>
    </symbol>
    <symbol id="icon-chat-closed" viewBox="0 0 69.8 39.1">
        <path d="M66.4 26.3a16.5 16.5 0 0 0 2.7-9C69.1 7.7 61 0 51 0a18.3 18.3 0 0 0-16.6 10 19.1 19.1 0 0 0-14-6C9.8 4 1.6 11.7 1.6 21.4A16.7 16.7 0 0 0 3 28.6L0 36l10 .2a19.4 19.4 0 0 0 10.3 3 18.8 18.8 0 0 0 17-10.4 18.6 18.6 0 0 0 13.6 5.7 19 19 0 0 0 7-1.3l10.8 1.3 1-1.4zm-54.2-2.6a2.2 2.2 0 1 1 2.2-2.1 2.2 2.2 0 0 1-2.2 2.1zm7.7 0a2.2 2.2 0 1 1 2.2-2.1 2.2 2.2 0 0 1-2.2 2.1zm7.5 0a2.2 2.2 0 1 1 2.2-2.1 2.2 2.2 0 0 1-2.2 2.1zM58 31.3h-.5a17 17 0 0 1-6.5 1.3A16.6 16.6 0 0 1 38 26.7a16.6 16.6 0 0 0-2.4-15A16.3 16.3 0 0 1 51 2C59.9 2 67 8.8 67 17.3a14.5 14.5 0 0 1-2.7 8.4v1l2.7 5.6z"/><path d="M58.3 6.5h-13a1 1 0 0 0-1 1 8.4 8.4 0 0 0 .5 3 8 8 0 0 0 .8 1.6 14.8 14.8 0 0 0 2.5 2.8 15.5 15.5 0 0 1 1.2 1.3 2.2 2.2 0 0 1 .7 1.4c0 .8-.8 1.5-2 2.6a19.3 19.3 0 0 0-1.9 2l-.5.9a8.3 8.3 0 0 0-1.3 4.5 1 1 0 0 0 1 1h13a1 1 0 0 0 1-1 8.2 8.2 0 0 0-1.3-4.5 5.3 5.3 0 0 0-.5-.8 18.1 18.1 0 0 0-2-2c-1.1-1.2-1.8-1.9-1.8-2.7a2.2 2.2 0 0 1 .6-1.4 17 17 0 0 1 1.2-1.3 14.6 14.6 0 0 0 2.5-2.8 8.8 8.8 0 0 0 .8-1.6 8.3 8.3 0 0 0 .5-3 1 1 0 0 0-1-1zm-.6 4c-1.1 2.7-3.6 4-4.6 5.7a2.7 2.7 0 0 0-.4 1.4c0 1.8 1.9 2.9 3.5 4.7a7.5 7.5 0 0 1 2.1 5.3h-13a7.5 7.5 0 0 1 2.2-5.3c1.6-1.8 3.5-3 3.5-4.7a2.6 2.6 0 0 0-.4-1.4c-1-1.7-3.5-3-4.7-5.7a7.4 7.4 0 0 1-.6-3h13a7.3 7.3 0 0 1-.6 3z"/><path d="M46 27h11.7c-.2-2.1-4.6-5.2-5.9-5.2s-5.7 3-5.9 5.2zM49.2 13.8c.8.7 1.6 1.7 2.6 1.7s1.8-1 2.6-1.7a11.8 11.8 0 0 0 2.7-3.3c-1-.2-2.7 1.4-5.3 1.4s-4.8-1.6-5.2-1.3a11.3 11.3 0 0 0 2.6 3.2z"/>
    </symbol>
    <symbol id="icon-hours" viewBox="0 0 17.99 21.31">
        <path d="M16.16 6.26l.23-.29c.38.31.46.31.76 0l.69-.69c.2-.2.2-.36 0-.56l-1.33-1.33a.34.34 0 0 0-.54 0l-.69.69c-.32.32-.32.39 0 .76-.09.08-.19.15-.27.24l-.24.31a9.07 9.07 0 0 0-4.73-2V2h.59c.27 0 .4-.12.4-.39V.49a.5.5 0 0 0-.25-.49H7.21A.49.49 0 0 0 7 .46V1.6c0 .38.12.39.4.39H8v1.4a9 9 0 0 0-4.67 2l-.55-.53c.24-.31.26-.42.07-.61L2 3.37a.32.32 0 0 0-.5 0L.12 4.76a.32.32 0 0 0 0 .5l.88.83a.33.33 0 0 0 .5 0L1.54 6l.54.53a9 9 0 0 0 12.48 12.84 8.67 8.67 0 0 0 3.24-5.25 8.9 8.9 0 0 0-1.92-7.6c.12-.09.19-.17.28-.26zm.5 6.05A7.66 7.66 0 1 1 9 4.66a7.67 7.67 0 0 1 7.65 7.65z"/><path d="M10.75 7.28l-1.89 3.53a.44.44 0 0 1-.28.25 1.32 1.32 0 0 0-.82 1.76 1.33 1.33 0 1 0 2.39-1.16.42.42 0 0 1 0-.35q.51-2 1-4.05c0-.18.06-.37.09-.56h-.07a2.6 2.6 0 0 0-.42.58z"/>
    </symbol>
    <symbol id="icon-attachment" viewBox="0 0 512 512">
        <path d="m456 396c0 22-8 41-23 56-15 15-33 22-56 22-25 0-48-9-67-28l-222-222c-21-22-32-48-32-77 0-31 10-56 31-78 21-21 47-31 77-31 30 0 56 10 78 32l173 173c2 2 3 4 3 6 0 3-3 8-9 14-6 6-10 8-13 8-2 0-5-1-7-2l-173-174c-15-15-32-22-51-22-21 0-38 7-52 22-13 14-20 31-20 51 0 20 7 38 21 52l222 222c12 12 26 18 41 18 13 0 23-4 31-12 8-8 12-18 12-30 0-16-6-30-18-42l-166-166c-5-4-11-7-17-7-6 0-11 2-14 6-4 3-6 8-6 14 0 6 3 11 8 16l117 118c2 1 3 4 3 6 0 3-3 7-9 13-6 6-11 9-14 9-2 0-4-1-6-3l-117-117c-12-11-18-26-18-42 0-16 5-29 16-40 11-11 24-16 40-16 17 0 31 6 42 18l166 166c19 18 29 41 29 67z"/>
    </symbol>
    <symbol id="icon-cart" viewBox="0 0 19.17 17.16">
        <path d="m19.17 4.54a.76.76 0 0 0 -.84-.54c-4.55 0-9.11 0-13.67 0a.14.14 0 0 1 0-.06l-.5-2.33-.16-.99a.63.63 0 0 0 -.76-.62h-2.38a.76.76 0 0 0 -.86.51v.24a.73.73 0 0 0 .81.56h1.06 1a.19.19 0 0 1 0 .1l2.36 11.19a.61.61 0 0 0 .66.58h.11a2.77 2.77 0 0 0 -.39 1.49 2.53 2.53 0 0 0 .75 1.84 2 2 0 0 0 2.83.15 2.48 2.48 0 0 0 .81-1.36 2.89 2.89 0 0 0 -.3-2.1h2a2.65 2.65 0 0 0 -.31.78 2.8 2.8 0 0 0 0 1.35 2.6 2.6 0 0 0 .61 1.14 2.05 2.05 0 0 0 2.81.24 2.44 2.44 0 0 0 .87-1.33 2.84 2.84 0 0 0 -.29-2.21h.05c.34 0 .57-.14.71-.51.45-1.21.9-2.41 1.36-3.62l1.63-4.3v-.2zm-6.64 9.78a1 1 0 0 1 1-.91h.14a1.06 1.06 0 0 1 .89 1.21 1.14 1.14 0 0 1 -1 1.2 1.17 1.17 0 0 1 -1-1.25 1.13 1.13 0 0 1 -.03-.25zm-4.68-.9a1.12 1.12 0 0 1 1 1.22 1.14 1.14 0 0 1 -1 1.19 1.15 1.15 0 0 1 -1-1.23 1.13 1.13 0 0 1 1-1.18zm-1.53-1.59c-.45-2.18-.91-4.37-1.38-6.55h12.7q-1.25 3.26-2.47 6.53s0 .06-.05 0c-2.93.05-5.85.05-8.8.02z" />
    </symbol>
    <symbol id="icon-search" viewBox="0 0 19.67 19.54">
        <path d="m19.38 17.83c-3.32-3.31-3.72-3.73-4-4.07s-.45-.48-1.73-1.77l-.08-.05a7.54 7.54 0 1 0 -1.37 1.42.13.13 0 0 1 0 .05c1.26 1.25 1.46 1.47 1.7 1.72s.73.78 4.07 4.12a1 1 0 0 0 .71.29 1 1 0 0 0 .71-.29 1 1 0 0 0 -.01-1.42zm-11.88-4.83a5.5 5.5 0 1 1 5.5-5.5 5.51 5.51 0 0 1 -5.5 5.5z"/>
    </symbol>
    <symbol id="icon-marker" viewBox="0 0 320 512">
        <path d="M160 0A160 160 0 0 0 16 229l144 283 143-279A160 160 0 0 0 160 0zm0 256a96 96 0 1 1 96-96 96 96 0 0 1-96 96z"/>
    </symbol>
    <symbol id="icon-menu" viewBox="0 0 23 18">
        <path d="M22 2H1a1 1 0 0 1 0-2h21a1 1 0 0 1 0 2zM22 10H1a1 1 0 0 1 0-2h21a1 1 0 0 1 0 2zM22 18H1a1 1 0 0 1 0-2h21a1 1 0 0 1 0 2z"/>
    </symbol>
    <symbol id="icon-phone" viewBox="0 0 578 578">
        <path d="M578 456c1 10-2 18-9 25l-81 80a59 59 0 0 1-43 17 312 312 0 0 1-101-24 534 534 0 0 1-188-132A671 671 0 0 1 40 270 384 384 0 0 1 3 165a152 152 0 0 1-2-43 59 59 0 0 1 16-32L98 9c6-6 12-9 20-9 5 0 10 2 14 5l10 11 66 124c3 7 4 14 3 22-2 8-5 14-11 19l-30 30-2 4-1 5c2 8 5 18 11 29a387 387 0 0 0 66 84 405 405 0 0 0 85 67l22 9 8 2 4-1 4-2 35-36c7-6 15-10 25-10 7 0 13 2 17 4l119 70c8 5 13 12 15 20z" />
    </symbol>
    <symbol id="icon-trash" viewBox="0 0 657 901">
        <path d="M55 881a20 20 0 0 0 20 20h507a20 20 0 0 0 20-20V233H55v648zm386-538h75v436h-75zm-150 0h75v436h-75zm-150 0h75v436h-75zM497 92V20a20 20 0 0 0-20-20H180a20 20 0 0 0-20 20v97H20a20 20 0 0 0-20 20v50a20 20 0 0 0 20 20h617a20 20 0 0 0 20-20v-50a20 20 0 0 0-20-20H497V92zm-75 21H235V75h187v38z"/>
    </symbol>
    <symbol id="icon-add" viewBox="0 0 28 28">
        <path d="M14 0a14 14 0 1 0 14 14A14 14 0 0 0 14 0zm5 15h-4v4h-3v-4H9v-2h3V9h3v4h4z"/>
    </symbol>
    <symbol id="icon-logout" viewBox="0 0 25 25">
        <path d="M25 2l-2-2-11 10L2 0 0 2l10 11L0 23l2 2 10-10 11 10 2-2-10-10L25 2z"/>
    </symbol>
    <symbol id="icon-summary" viewBox="0 0 10 12">
        <path d="M9 2H7a2 2 0 0 0-4 0H1a1 1 0 0 0-1 1v8a1 1 0 0 0 1 1h8a1 1 0 0 0 1menu-mobile-item-drug-1V3a1 1 0 0 0-1-1zM5 1a1 1 0 0 1 1 1 1 1 0 0 1-1 1 1 1 0 0 1-1-1 1 1 0 0 1 1-1zm1 8H2V8h4zm2-2H2V6h6zm0-2H2V4h6z"/>
    </symbol>
    <symbol id="icon-payment" viewBox="0 0 460 296">
        <path d="M435 0H25A25 25 0 0 0 0 25v165h460V25a25 25 0 0 0-25-25zM158 116a12 12 0 0 1-12 12H57a12 12 0 0 1-12-12V74a12 12 0 0 1 12-12h89a12 12 0 0 1 12 12zm156 18a49 49 0 1 1 1-81 68 68 0 0 0-1 81zm55 9a49 49 0 1 1 49-48 49 49 0 0 1-49 48zM0 270a25 25 0 0 0 25 26h410a25 25 0 0 0 25-26v-12H0z"/>
    </symbol>
    <symbol id="icon-gift" viewBox="0 0 66.5 79.2">
        <path d="M66.4 23.7a5.9 5.9 0 0 0-5.9-5.9H39.7l.6-.4a534.3 534.3 0 0 0 10.3-7.2 9.4 9.4 0 0 0 2.1-2.6 4.2 4.2 0 0 0-1.4-5.9 9.4 9.4 0 0 0-9.6-.4A13.6 13.6 0 0 0 37 5.6a27.3 27.3 0 0 0-2.7 4.8 41.4 41.4 0 0 0-1.4-4.2C31.9 4 30.3 1 26.3 0h-1.8a15 15 0 0 0-8.2 5.8 6.5 6.5 0 0 0-1.7 5.8 6.5 6.5 0 0 0 2.2 3.4 17 17 0 0 0 4.8 2.8H6.3a6.3 6.3 0 0 0-4.6 1.8A6.2 6.2 0 0 0 0 24.2v8a6 6 0 0 0 2.6 5.3V73A5.7 5.7 0 0 0 6.8 79l.4.3H59l.3-.2h.1a5.8 5.8 0 0 0 4.5-6V49.4v-12a5.7 5.7 0 0 0 2.6-4.8v-9zm-8.5 50H36V38.6h22.5V73c0 .7-.2.7-.6.7zM36 33v-9.9h24.3a1.4 1.4 0 0 1 .6.1 1.3 1.3 0 0 1 .1.7v8.6a.8.8 0 0 1 0 .4.8.8 0 0 1-.5.1zM40 11a15.2 15.2 0 0 1 2.7-3.7A4.7 4.7 0 0 1 46 5.7a4.5 4.5 0 0 1 1.3.1 13 13 0 0 1-1.7 1.4L40 11zM5.5 24c0-.7 0-.7.6-.7h24.4V33H6.3a3.6 3.6 0 0 1-.7-.1 2 2 0 0 1-.1-.8V24zm25 14.6v35.1H8.7c-.7 0-.7 0-.7-.7V38.6zM19.9 10.2a11.2 11.2 0 0 1 5-4.6 1.1 1.1 0 0 1 1.5.5 12.6 12.6 0 0 1 1.9 3.3l1.3 5.4v.2l-.3-.1a735 735 0 0 1-8-3.2 5.3 5.3 0 0 1-1.3-1c-.2-.3-.2-.4 0-.5z"/>
    </symbol>
    <symbol id="icon-file" viewBox="0 0 364 500">
        <path d="M364 177L187 0H0v500h364V177zM187 29l138 138H187zM21 479V21h146v166h177v292H21z"/>
    </symbol>
    <symbol id="icon-prescription" viewBox="0 0 45 45.1">
        <path d="M31.8 20.6h-7.4v-7.3h-3.9v7.4h-7.3v3.9h7.4v7.3h3.9v-7.4h7.3v-3.9zM3.9 4h10.2V0H3.6A3.5 3.5 0 0 0 0 3.6v10.7h3.9zM41.5.1H30.9V4h10.2v10.2H45V3.6A3.4 3.4 0 0 0 41.5.1zM3.9 31H0v10.5a3.4 3.4 0 0 0 3.6 3.6h10.5v-3.8H3.9zm37.3 10.2H30.9v3.9h10.6a3.4 3.4 0 0 0 3.5-3.5V31h-3.8z"/>
    </symbol>
    <symbol id="icon-renewal" viewBox="0 0 54.5 55.9">
        <path d="M21.4 4.3a38 38 0 0 1 3.8-.6 24 24 0 0 1 7.1.4 16 16 0 0 1 2.1.5h.2a22.3 22.3 0 0 1 4 1.6l1 .6.6.4-2.9 5.7c2.8-.6 8.4-1.9 10.4-2.2a12.1 12.1 0 0 0-.5-1.4L44 0l-2.8 5.1-.7-.4A29.6 29.6 0 0 0 23.8 2l-3.2.6h-.2a26 26 0 0 0-20.3 28l.1.7 4-2.3C3.7 24.7 5.3 8.5 21.3 4.3zM54.4 25.1v-.7l-4 2.3c.3 4.3-1.3 20.5-17.3 24.7a38 38 0 0 1-3.8.6 24 24 0 0 1-7-.4 16 16 0 0 1-2.2-.5H20a22.3 22.3 0 0 1-4-1.6l-1-.6-.6-.4 3-5.7-10.5 2.4.5 1.4c1 2.5 2.3 6.7 3.2 9.3l2.8-5.1.7.4a29.6 29.6 0 0 0 16.7 2.7l3.1-.6h.2a26.4 26.4 0 0 0 20.4-28.2z"/>
    </symbol>
    <symbol id="icon-infinite" viewBox="0 0 43.8 18.4">
        <path d="M36.9 17.9a10.4 10.4 0 0 1-10.4-2.4l-4.3-4.3-2.6-2.8-.8-.8c-1.3-1.3-2.6-2.6-4-3.6a7.8 7.8 0 0 0-10.5.7 6.5 6.5 0 0 0-1.9 5 6 6 0 0 0 2.7 4.6c3.2 2.4 7.1 2.2 10.5-.5l1.3-1.1 1.4-1.2c.3-.2 1-.8 1.7-.2.2.2.3.4.3.7 0 .5-.3 1-.5 1.1-2.6 2.9-5.8 5.7-10.6 5.2A9.6 9.6 0 0 1 1 13a8.1 8.1 0 0 1 .5-8.6A10 10 0 0 1 10 0c2.8-.1 5.4 1 7.6 3.1 1.5 1.4 2.9 3 4.3 4.5l3 3.1.1.1c1.3 1.3 2.6 2.6 4 3.6 2.6 1.9 5.5 2 8.5.5 2.5-1.3 3.9-3.4 3.8-6-.1-2.7-1.5-4.7-4.2-6-3.2-1.5-6.2-1-9.1 1.4l-1.5 1.3-.9.8c-.3.3-.7.6-1.1.6-.3 0-.5-.2-.7-.5-.2-.2-.5-.9.2-1.7 1.9-2.1 4.4-4.4 7.9-5 2.9-.5 5.9.3 8.2 2a8.8 8.8 0 0 1 3.5 6.3 9 9 0 0 1-6.7 9.8z"/>
    </symbol>
    <symbol id="icon-referral" viewBox="0 0 65 66.4">
        <path d="M65 26.5l-1.1 1.2a18.4 18.4 0 0 1-2.2 1.7 21.1 21.1 0 0 1-3.3 1.8l-.5.2a18.8 18.8 0 0 1-13.2 0 .8.8 0 0 1-.4-.2 15.8 15.8 0 0 1-3.6-2 21.1 21.1 0 0 1-2.3-1.9l-.9-.9a2.5 2.5 0 0 1 .4-1.1 9.2 9.2 0 0 1 3.2-3.3 21.5 21.5 0 0 1 6.7-3.1c.2-.1.5-.3.5-.5a5.8 5.8 0 0 0 .3-1.4.8.8 0 0 0-.2-.4 8.6 8.6 0 0 1-2.2-4.2l-.3-.3-.7-.6a2.7 2.7 0 0 1 0-3 .8.8 0 0 0 .1-.5 11.5 11.5 0 0 1 .1-3.7A4.8 4.8 0 0 1 49.2.4a9.4 9.4 0 0 1 4.1 0 4.8 4.8 0 0 1 3.9 4.7v3a.8.8 0 0 0 .1.5c.8.9.4 2.6-.2 3.3l-.2.2c-.6.1-.6.6-.7 1.1a9.5 9.5 0 0 1-2 3.5 1.1 1.1 0 0 0-.3.8 1.7 1.7 0 0 1 .1.7c.1.5.4.7.9.9a19 19 0 0 1 8.7 4.9 5 5 0 0 1 1.4 2.3c.1-.1 0 0 0 .2zM27.5 53.4l-1.1 1.2a18.4 18.4 0 0 1-2.2 1.7 21.1 21.1 0 0 1-3.3 1.8l-.5.2a18 18 0 0 1-6.6 1.2 18 18 0 0 1-6.6-1.2.8.8 0 0 1-.4-.2 15.8 15.8 0 0 1-3.6-2 21.1 21.1 0 0 1-2.3-1.9l-.9-.9a2.5 2.5 0 0 1 .4-1.1 9.2 9.2 0 0 1 3.2-3.3 21.5 21.5 0 0 1 6.7-3.1c.2-.1.5-.3.5-.5a5.8 5.8 0 0 0 .3-1.4.8.8 0 0 0-.2-.4 8.6 8.6 0 0 1-2.2-4.2l-.3-.3-.7-.6a2.7 2.7 0 0 1 0-3 .8.8 0 0 0 .1-.5 11.5 11.5 0 0 1 .1-3.7 4.8 4.8 0 0 1 3.8-3.9 9.4 9.4 0 0 1 4.1 0 4.8 4.8 0 0 1 3.9 4.7v3a.8.8 0 0 0 .1.5c.8.9.4 2.6-.2 3.3l-.2.2c-.6.1-.6.6-.7 1.1a9.5 9.5 0 0 1-2 3.5 1.1 1.1 0 0 0-.3.8 1.7 1.7 0 0 1 .1.7c.1.5.4.7.9.9a19 19 0 0 1 8.7 4.9 5 5 0 0 1 1.4 2.3c.1-.1.1 0 0 .2zM61.5 38.8a25.6 25.6 0 0 1-25.4 23.8h-.4l-.3 3.8-8.5-5.4 9.2-4.1-.3 3.7a23.3 23.3 0 0 0 15.7-5.8 23 23 0 0 0 8-16.2c0-.6.5-.9 1.1-.9a1.2 1.2 0 0 1 .9 1.1zM29 9.5l.3-3.7a23.3 23.3 0 0 0-15.7 5.8 23 23 0 0 0-8 16.2 1 1 0 0 1-1 .9h-.1a1 1 0 0 1-.9-1.1A25.6 25.6 0 0 1 29.5 3.8l.3-3.8 8.5 5.4z"/>
    </symbol>
    <symbol id="icon-confirm" viewBox="0 0 128 128">
        <path d="M64 0a64 64 0 1 0 64 64A64 64 0 0 0 64 0zm39.1 49.8L55.7 97.2a1 1 0 0 1-1.4 0L24.8 67.7a1 1 0 0 1 0-1.4l8.5-8.5a1 1 0 0 1 1.4 0L55 78.1l38.2-38.2a1 1 0 0 1 1.4 0l8.5 8.5a1 1 0 0 1 0 1.4z"/>
    </symbol>
    <symbol id="icon-info" viewBox="0 0 496.158 496.158">
        <path d="M496.158 248.085C496.158 111.063 385.089.003 248.083.003 111.07.003 0 111.063 0 248.085c0 137.001 111.07 248.07 248.083 248.07 137.006 0 248.075-111.069 248.075-248.07z" fill="#25b7d3"/><g fill="#fff"><path d="M315.249 359.555a5.002 5.002 0 0 0-6.27-1.702c-24.582 11.637-52.482 23.94-57.958 25.015a4.83 4.83 0 0 1-.644-.737c-.742-1.005-1.103-2.318-1.103-4.015 0-13.905 10.495-56.205 31.192-125.719 17.451-58.406 19.469-70.499 19.469-74.514 0-6.198-2.373-11.435-6.865-15.146-4.267-3.519-10.229-5.302-17.719-5.302-12.459 0-26.899 4.73-44.146 14.461-16.713 9.433-35.352 25.41-55.396 47.487a5.002 5.002 0 0 0 5.591 7.992c7.037-2.872 42.402-17.359 47.557-20.597 4.221-2.646 7.875-3.989 10.861-3.989.107 0 .199.004.276.01.036.198.07.5.07.933 0 3.047-.627 6.654-1.856 10.703-30.136 97.641-44.785 157.498-44.785 182.994 0 8.998 2.501 16.242 7.432 21.528 5.025 5.393 11.803 8.127 20.146 8.127 8.891 0 19.712-3.714 33.08-11.354 12.936-7.392 32.68-23.653 60.363-49.717a4.998 4.998 0 0 0 .705-6.458zM314.282 76.672c-4.925-5.041-11.227-7.597-18.729-7.597-9.34 0-17.475 3.691-24.176 10.971-6.594 7.16-9.938 15.946-9.938 26.113 0 8.033 2.463 14.69 7.32 19.785 4.922 5.172 11.139 7.794 18.476 7.794 8.958 0 17.049-3.898 24.047-11.586 6.876-7.553 10.363-16.433 10.363-26.393.001-7.654-2.476-14.075-7.363-19.087z"/></g>
    </symbol>
    <symbol id="icon-facebook-alt" viewBox="0 0 155.1 155.1">
        <path d="M89.6 155.1V84.4h23.7l3.6-27.6H89.6V39.2c0-8 2.2-13.4 13.7-13.4h14.5V1C115.3.8 106.7 0 96.6 0 75.6 0 61 12.9 61 36.5v20.3H37.3v27.6H61V155h28.5z"/>
    </symbol>
    <symbol id="icon-instagram" viewBox="0 0 512 512">
        <path d="M437 0H75A75 75 0 000 75v362a75 75 0 0075 75h362a75 75 0 0075-75V75a75 75 0 00-75-75zM257 390c-74.4 0-135-60.6-135-135s60.6-135 135-135 135 60.6 135 135-60.6 135-135 135zm150-240a45 45 0 11.1-90.1 45 45 0 01-.1 90.1zm0 0"/><path d="M407 90a15 15 0 100 30 15 15 0 000-30zm0 0M257 150a105.1 105.1 0 10105 105c0-57.9-47.1-105-105-105zm0 0"/>
    </symbol>
    <symbol id="icon-twitter" viewBox="0 0 300 271">
        <path d="m236 0h46l-101 115 118 156h-92.6l-72.5-94.8-83 94.8h-46l107-123-113-148h94.9l65.5 86.6zm-16.1 244h25.5l-165-218h-27.4z"/>
    </symbol>
    <symbol id="icon-cross" viewBox="0 0 414.3 414.3">
        <path d="M3.66 410.64a12.46 12.46 0 0017.68 0l185.81-185.81 185.81 185.8a12.47 12.47 0 0017.68 0 12.5 12.5 0 000-17.67L224.83 207.15l185.8-185.81a12.5 12.5 0 00-17.67-17.68L207.15 189.47 21.34 3.67A12.5 12.5 0 103.66 21.33l185.81 185.81-185.8 185.8a12.5 12.5 0 000 17.69z"/>
    </symbol>
    <symbol id="icon-youtube" viewBox="0 0 512 462.9">
        <path d="M507 100s-6-45-21-65C467 8 445 8 435 7c-71-6-179-7-179-7S148 1 77 7C67 8 45 9 26 35 10 55 5 100 5 100s-5 54-5 107v50c0 53 5 106 5 106s6 45 21 65c19 27 45 25 56 29 41 5 174 6 174 6s108 0 179-7c10-1 32-3 51-28 15-20 21-65 21-65s5-54 5-106v-50c0-53-5-107-5-107zM194 334V142l168 98z"/>
    </symbol>
    <symbol id="icon-linkedin" viewBox="0 0 22.099 22.111">
        <path d="m22.1 2.964v16.171a1.815 1.815 0 0 0 -.057.238 3.271 3.271 0 0 1 -1.143 1.954 3.437 3.437 0 0 1 -2.249.784h-15.221a2.976 2.976 0 0 1 -.318-.011 3.267 3.267 0 0 1 -1.953-.806 3.352 3.352 0 0 1 -1.159-2.624v-15.229a2.791 2.791 0 0 1 .045-.613 3.26 3.26 0 0 1 2.476-2.714c.148-.045.3-.068.443-.114h16.171a1.815 1.815 0 0 0 .238.057 3.277 3.277 0 0 1 2.613 2.453c.045.147.079.306.114.454zm-9.255 6c0-.1-.011-.159-.011-.216v-1.014c0-.114-.023-.17-.159-.17h-3.022c-.136 0-.159.057-.159.17.011.307.011.625.011.931 0 2.9-.011 5.8-.011 8.7 0 .148.034.2.193.2.988-.011 1.965-.011 2.953 0 .148 0 .193-.034.193-.193-.011-.568 0-1.124 0-1.692 0-1.317.011-2.623.011-3.941a1.832 1.832 0 0 1 1.669-1.779 1.494 1.494 0 0 1 1.635 1.056 4.151 4.151 0 0 1 .182 1.34v5.008c0 .159.045.2.193.2.965-.011 1.931 0 2.9 0 .238 0 .238 0 .238-.238v-5.277a6.952 6.952 0 0 0 -.273-2.158 3.532 3.532 0 0 0 -1.476-2 3.884 3.884 0 0 0 -2.033-.556 3.28 3.28 0 0 0 -2.737 1.238c-.094.115-.184.227-.298.387zm-5.168 3.607v-4.771c0-.238 0-.238-.227-.238h-2.919c-.159 0-.193.045-.193.2v9.607c0 .17.045.2.216.2.965-.011 1.931 0 2.9 0 .227 0 .227 0 .227-.227zm-3.52-8.12a1.74 1.74 0 0 0 .772 1.465 2.2 2.2 0 0 0 2.305-.1 1.718 1.718 0 0 0 -.011-2.716 2.014 2.014 0 0 0 -1.544-.329 1.722 1.722 0 0 0 -1.523 1.681z"/>
    </symbol>
    <symbol id="icon-caret" viewBox="0 0 14.03 9.15">
        <path class="cls-1" d="M7.09,9.15a1,1,0,0,1-.76-.35L.24,1.65A1,1,0,0,1,1.76.35L7.08,6.6,12.26.36A1,1,0,1,1,13.8,1.64L7.86,8.79a1,1,0,0,1-.76.36Z"/>
    </symbol>
    <symbol id="icon-link-arrow" viewBox="0 0 24.55 16.67">
        <path d="m24.28 7.79-6.93-7.47a1 1 0 0 0 -1.47 1.36l5.37 5.79h-20.25a1 1 0 0 0 0 2h20l-5.89 5.46a1 1 0 0 0 -.05 1.42 1 1 0 0 0 .73.32 1 1 0 0 0 .68-.27l7.53-6.93a.8.8 0 0 0 .13-.19.64.64 0 0 0 .14-.08 1 1 0 0 0 .01-1.41z"/>
    </symbol>
    <symbol id="icon-round-arrow" viewBox="0 0 34.76 34.76">
        <path d="m17.38 0a17.38 17.38 0 1 0 17.38 17.38 17.38 17.38 0 0 0 -17.38-17.38zm2.62 23.86a1 1 0 0 1 0 1.42 1 1 0 0 1 -.71.29 1 1 0 0 1 -.7-.29l-7.23-7.23a1 1 0 0 1 0-1.41l7.23-7.23a1 1 0 0 1 1.41 0 1 1 0 0 1 0 1.42l-6.52 6.51z" />
    </symbol>
    <symbol id="icon-menu-prescription" viewBox="0 0 20.97 14.12">
        <path d="m20.92.22a.37.37 0 0 0 -.44-.22h-.12l-2.19.43-15.61 2.84-2.16.4a.46.46 0 0 0 -.4.24.35.35 0 0 0 0 .33.65.65 0 0 0 .19.21l1 .81 2.17 1.66a.18.18 0 0 1 .08.08l.2 3.73a.46.46 0 0 0 .22.42.46.46 0 0 0 .45-.06l.75-.48 1-.6v.06l2.32 3.72a.56.56 0 0 0 .36.29.53.53 0 0 0 .38-.23l10.63-12 1-1.17a.39.39 0 0 0 .17-.46zm-11.28 6.23c-.34 2.09-.67 4.16-1 6.26l-2.71-4.32 3.07-1.62zm-.64-1.32 2.29-.88 4.71-1.78-7 3.62c0-.32 0-.63-.07-.93zm-3.62.75-1.28.49a.12.12 0 0 1 -.15 0l-1.95-1.57-.38-.3 5.75.62zm-.16.69 3.14-1.2v.18c0 .28.05.55.09.84h-.07l-1 .61c-.61.32-1.23.63-1.84 1a1.22 1.22 0 0 0 -.39.36c-.26.4-.52.8-.77 1.2 0-.85-.08-1.68-.13-2.52zm4.13 5.43c.09-.55.17-1.09.26-1.64.23-1.38.45-2.77.67-4.17a.17.17 0 0 1 .1-.12l8.62-4.5-9.73 11zm7.37-10.45-8 3a.83.83 0 0 1 -.31 0l-4.17-.37-.83-.09-.53-.09 14-2.53zm-10.95 7.71-.91.58.64-1z"/>
    </symbol>
    <symbol id="icon-menu-services" viewBox="0 0 15.57 14.87">
        <path d="m4.85 9.2c.49-.48.49-.48 1.07-.14l1.1.7a12.51 12.51 0 0 1 3.7-3c0 .14 0 .33-.08.4a17.83 17.83 0 0 0 -3.31 4.41l-.13.22z"/><path d="m4.2 1.23v.46.12a.58.58 0 0 1 0 .19.51.51 0 0 1 -.55.37.51.51 0 0 1 -.57-.37 1 1 0 0 1 0-.17v-1.27c0-.29.19-.42.39-.56h.38a.77.77 0 0 1 .39.79 3.39 3.39 0 0 0 -.04.44z"/><path d="m12.57 1.23v.46a1 1 0 0 1 0 .29v.09.07.05s0 0-.07.06l-.1.05a.29.29 0 0 1 -.1 0h-.3-.07-.06a.37.37 0 0 1 -.21-.18s0 0 0-.06a.89.89 0 0 1 0-.28v-.55a3.17 3.17 0 0 0 0-.44.76.76 0 0 1 .14-.79h.38a.71.71 0 0 1 .4.75v.48z"/><path d="m14.22 1.24h-1v.52a.85.85 0 0 1 0 .23 1.2 1.2 0 0 1 -1.37 1 1.23 1.23 0 0 1 -1-1 1.49 1.49 0 0 1 0-.21v-.54h-6.01v.55a1.2 1.2 0 0 1 -2.39.21 1 1 0 0 1 0-.24v-.53h-1.1a1.4 1.4 0 0 0 -.69.19l-.08.06a1.34 1.34 0 0 0 -.58 1.1v10.94a1.36 1.36 0 0 0 1.35 1.35h12.86a1.36 1.36 0 0 0 1.36-1.35v-10.94a1.36 1.36 0 0 0 -1.35-1.34zm.59 12.28a.6.6 0 0 1 -.59.58h-12.87a.58.58 0 0 1 -.58-.58v-8.27h14z"/>
    </symbol>
    <symbol id="icon-menu-pharmacy" viewBox="0 0 13.13 13.39">
        <path d="m12.13 4.1h-3v-3.1a1 1 0 0 0 -1-1h-3.13a1 1 0 0 0 -1 1v3.1h-3a1 1 0 0 0 -1 1v3.19a1 1 0 0 0 1 1h3v3.1a1 1 0 0 0 1 1h3.1a1 1 0 0 0 1-1v-3.1h3a1 1 0 0 0 1-1v-3.19a1 1 0 0 0 -.97-1zm-4.48 4.72v3.1h-2.18v-3.1a1 1 0 0 0 -1-1h-3v-2.26h3a1 1 0 0 0 1-1v-3.11h2.17v3.11a1 1 0 0 0 1 1h3v2.26h-3a1 1 0 0 0 -.99 1z"/>
    </symbol>
    <symbol id="icon-warning" viewBox="0 0 264 264">
        <path d="m262.846 237.792-125.825-217.934c-1.072-1.856-3.053-3-5.196-3s-4.125 1.144-5.196 3l-125.825 217.934c-1.072 1.856-1.072 4.144 0 6s3.053 3 5.196 3h251.65c2.144 0 4.125-1.144 5.196-3s1.072-4.143 0-6zm-246.454-3 115.433-199.934 115.433 199.935h-230.866z"/><path d="m121.491 106.734 4.333 76.404c.167 3.013 2.576 5.485 5.66 5.66 3.314.188 6.152-2.346 6.34-5.66l4.333-76.404c.021-.383.022-.78 0-1.172-.324-5.707-5.213-10.071-10.919-9.747s-10.07 5.212-9.747 10.919z"/><path d="m131.825 201.915c-1.58 0-3.13.64-4.24 1.76-1.12 1.11-1.76 2.66-1.76 4.24s.64 3.13 1.76 4.24c1.11 1.12 2.66 1.76 4.24 1.76s3.13-.64 4.24-1.76c1.12-1.11 1.76-2.66 1.76-4.24s-.64-3.13-1.76-4.24c-1.11-1.12-2.66-1.76-4.24-1.76z"/>
    </symbol>
    <symbol id="icon-button-with-caret" viewBox="0 0 896 896">
        <path d="m800 0h-704a96 96 0 0 0 -96 96v704a96 96 0 0 0 96 96h704a96 96 0 0 0 96-96v-704a96 96 0 0 0 -96-96zm-208.39 474-233.25 233.26a30.55 30.55 0 1 1 -43.21-43.19l211.66-211.65-211.66-211.67a30.55 30.55 0 0 1 43.21-43.2l233.25 233.25a30.53 30.53 0 0 1 0 43.2z"/>
    </symbol>
    <symbol id="icon-tiktok" viewBox="120 150 312 312">
        <path d="M423.96,226.26v32.57c0,3.91-3.05,7.2-6.95,7.48-8.7,.63-16.91-.55-24.43-3.51-11.06-4.37-21.83-9.53-32.25-14.51l-1.43-.7c-.54-.26-2.03-.97-2.76-1.19-.07,.35-.16,1.08-.16,2.58-.03,9.7,.04,19.95,.09,28.19,.15,22.37,.3,45.5-.83,68.41-1.91,38.69-19.13,68.61-49.81,86.52-14.66,8.55-30.03,12.89-45.69,12.89-11.16,0-22.11-2.24-32.55-6.67-26.19-11.07-45.36-34.22-52.59-63.51-7.53-30.48-2.11-57.99,16.11-81.76,14-18.28,33.74-29.68,60.35-34.84,3.12-.61,6.13-1.02,9.31-1.45l1.2-.17c1.11-.15,2.24-.31,3.4-.48,2.15-.31,4.33,.32,5.98,1.73,1.67,1.45,2.61,3.51,2.61,5.69v34.44c0,3.24-2.06,6.1-5.14,7.12-2.78,.93-5.56,1.79-8.25,2.63-6.02,1.86-11.62,3.6-16.97,5.89-14.05,5.97-22.07,15.3-24.51,28.52-2.22,12.02,.47,24.19,7.57,34.27,7.14,10.14,17.78,16.8,29.95,18.76,22.55,3.64,41.21-8.83,47.53-31.76,2.21-8.07,3.46-17.56,3.69-28.18,.28-13,.08-26.56-.1-38.53-.12-8.05-.22-15.31-.24-22.64-.06-26.54-.05-53.32-.04-79.22,.01-10.63,.01-21.26,.01-31.89v-5.16c0-4.14,3.36-7.5,7.5-7.5h34.18c3.56,0,6.66,2.54,7.35,6.03,3.75,18.7,10.05,32.19,19.84,42.46,10.49,11.01,24.09,17.58,41.58,20.07,3.67,.51,6.45,3.7,6.45,7.42Z"/>
    </symbol>
    <symbol id="icon-pinterest" viewBox="145 150 312 312">
        <path d="M405.6,191.9c-28.56-29.17-63.66-44.49-104.53-45.38-42.38-.91-78.8,13.98-109.41,43.21-28.78,29.01-44.35,63.86-45.14,104.76-.81,42.35,13.86,79.01,43.56,109.15,29.4,29.83,65.57,44.48,107.34,45.17,41.21-.6,76.87-14.75,106.18-43.6,29.03-28.55,44.27-63.56,45.14-104.28,.9-42.2-13.62-78.84-43.14-109.01Zm-20.38,77.01c-.48,8.3-1.83,16.45-4.14,24.46-2.75,9.48-6.7,18.39-12.25,26.56-4.98,7.34-11,13.68-18.38,18.66-6.53,4.42-13.69,7.43-21.48,8.88-2.6,.49-5.23,.76-7.87,.95-6.37,.48-12.61,.01-18.66-2.12-3.76-1.32-7.14-3.38-10.42-5.6-2.87-1.95-5.75-3.9-8.63-5.84-.38-.26-.82-.46-1.35-.75-.51,2.6-.96,5.06-1.47,7.51-2.09,10.25-4.42,20.44-7.81,30.36-2.3,6.76-5.04,13.34-8.68,19.52-4.02,6.84-8.96,12.9-15.27,17.8-.37,.29-.78,.55-1.42,1.01-.27-2.28-.55-4.27-.74-6.27-.58-6.2-.95-12.41-.79-18.64,.2-7.27,.79-14.51,1.81-21.72,1.58-11.05,4.1-21.87,6.87-32.66,2.49-9.66,5.09-19.3,7.58-28.96,.88-3.41,1.58-6.87,2.36-10.29,.15-.64,.11-1.18-.23-1.79-2.23-3.96-3.43-8.28-3.97-12.76-.84-6.93-.27-13.76,1.71-20.46,1.6-5.42,3.96-10.46,7.7-14.77,3.06-3.55,6.74-6.18,11.41-7.23,3.56-.81,7.07-.53,10.54,.53,2.52,.77,4.86,1.86,6.9,3.55,2.79,2.33,4.32,5.37,4.98,8.9,.79,4.34,.32,8.64-.49,12.91-1.32,7.03-3.6,13.79-5.75,20.59-2.04,6.48-4.11,12.95-5.23,19.67-.6,3.59-.83,7.19-.27,10.8,.95,6.11,4.51,10.07,10.19,12.24,2.49,.94,5.07,1.44,7.72,1.76,5.28,.65,10.28-.3,15.05-2.47,4.4-2.01,8.13-4.98,11.37-8.57,6.3-6.97,10.33-15.19,13.21-24.03,1.87-5.69,3.11-11.53,3.85-17.48,.56-4.5,.91-9.02,.78-13.56-.28-8.97-1.57-17.75-5.15-26.06-2.03-4.7-4.7-8.99-8.39-12.55-7.83-7.55-17.02-12.52-27.75-14.57-4.68-.9-9.39-1.27-14.1-1-8.04,.46-15.77,2.34-23.18,5.56-7.23,3.14-13.8,7.31-19.62,12.61-5.94,5.41-10.86,11.65-14.45,18.85-3.1,6.22-5.07,12.8-5.8,19.74-.54,5.22-.37,10.4,.45,15.57,.55,3.42,1.95,6.53,3.69,9.52,1.46,2.5,2.96,4.98,4.27,7.55,2.43,4.75,2.33,9.66,.53,14.59-.73,1.99-1.56,3.94-2.75,5.79-2.45-.39-4.76-1.19-7.05-2.04-4.57-1.69-8.69-4.19-12.23-7.54-2.63-2.51-4.79-5.4-6.5-8.63-2.91-5.53-4.49-11.45-5.31-17.61-.66-4.99-.87-10-.72-15.01,.44-13.63,4.09-26.32,11.25-37.96,5.78-9.37,13.19-17.21,22.02-23.74,7.66-5.66,16-10.01,25.03-13.05,5.39-1.81,10.9-3.14,16.56-3.84,4.07-.5,8.13-.89,12.24-.86,.86,0,1.73-.24,2.58-.2,5.04,.29,10.09,.35,15.11,1.04,6.9,.94,13.63,2.44,20.2,4.71,9.99,3.46,19.12,8.43,27.1,15.41,11.42,10.02,18.67,22.45,21.62,37.37,.78,3.88,1.18,7.81,1.48,11.75,.34,4.64,.38,9.27,.12,13.9Z"/>
    </symbol>
    <symbol id="icon-linkedin" viewBox="0 0 595.28 595.28">
        <path d="M448.79,187.04v221.16c-.28,1.08-.61,2.14-.82,3.23-2.06,10.75-7.24,19.75-15.62,26.71-8.87,7.37-19.22,10.66-30.78,10.65-69.37-.06-138.73-.03-208.1-.03-1.45,0-2.9,.03-4.34-.09-10.07-.85-19.14-4.33-26.74-11.02-10.74-9.46-15.9-21.52-15.9-35.84,.02-69.45,0-138.9,.04-208.34,0-2.8,.07-5.66,.61-8.4,3.75-19.22,14.96-31.71,33.89-37.09,1.99-.57,4.02-1,6.04-1.5,73.72,0,147.44,0,221.16,0,1.07,.27,2.14,.57,3.22,.81,18.5,4.14,30.55,15.18,35.78,33.49,.59,2.07,1.04,4.18,1.56,6.27Zm-126.62,81.9c-.07-1.44-.14-2.21-.14-2.98-.01-4.59-.05-9.17,.02-13.76,.02-1.58-.34-2.29-2.13-2.28-13.76,.06-27.52,.06-41.27,0-1.81,0-2.15,.74-2.1,2.31,.13,4.26,.19,8.53,.19,12.79-.05,39.66-.1,79.33-.21,118.99,0,2.03,.4,2.8,2.63,2.78,13.44-.1,26.87-.09,40.31-.01,1.98,.01,2.64-.54,2.61-2.56-.1-7.72-.06-15.45-.03-23.17,.06-17.94,.2-35.88,.17-53.82-.02-11.04,9.17-23.57,22.8-24.42,10.43-.65,18.71,3.76,22.36,14.4,2.06,5.99,2.42,12.11,2.42,18.3,.03,22.85,.04,45.7-.03,68.55,0,2.11,.56,2.75,2.71,2.74,13.19-.09,26.39-.05,39.58-.04q3.32,0,3.32-3.25c0-24.06,0-48.11,0-72.17,0-10.01-.69-19.94-3.79-29.54-3.67-11.35-9.86-20.87-20.15-27.36-8.48-5.35-17.85-7.46-27.77-7.6-15.12-.21-27.83,4.94-37.5,16.85-1.24,1.53-2.39,3.14-3.99,5.25Zm-70.66,49.44c0-21.73,0-43.46,0-65.19q0-3.23-3.09-3.24c-13.28,0-26.56,.05-39.84-.05-2.14-.02-2.7,.61-2.7,2.72,.06,43.78,.06,87.56,0,131.34,0,2.27,.7,2.84,2.87,2.82,13.2-.09,26.4-.04,39.6-.05q3.14,0,3.15-3.18c0-21.73,0-43.46,0-65.19Zm-48.16-110.96c-.19,7.89,3.97,15.78,10.57,20.02,8.74,5.63,22.82,5.03,31.47-1.33,12.13-8.93,12.03-28.29-.18-37.06-6.39-4.59-13.57-5.59-21.14-4.57-12.01,1.63-20.43,11-20.72,22.94Z"/>
    </symbol>
    <symbol id="icon-print" viewBox="0 0 45 45">
        <path d="M42.5,19.408H40V1.843c0-0.69-0.561-1.25-1.25-1.25H6.25C5.56,0.593,5,1.153,5,1.843v17.563H2.5c-1.381,0-2.5,1.119-2.5,2.5v20c0,1.381,1.119,2.5,2.5,2.5h40c1.381,0,2.5-1.119,2.5-2.5v-20C45,20.525,43.881,19.408,42.5,19.408zM32.531,38.094H12.468v-5h20.063V38.094z M37.5,19.408H35c-1.381,0-2.5,1.119-2.5,2.5v5h-20v-5c0-1.381-1.119-2.5-2.5-2.5H7.5V3.093h30V19.408z M32.5,8.792h-20c-0.69,0-1.25-0.56-1.25-1.25s0.56-1.25,1.25-1.25h20c0.689,0,1.25,0.56,1.25,1.25S33.189,8.792,32.5,8.792z M32.5,13.792h-20c-0.69,0-1.25-0.56-1.25-1.25s0.56-1.25,1.25-1.25h20c0.689,0,1.25,0.56,1.25,1.25S33.189,13.792,32.5,13.792z M32.5,18.792h-20c-0.69,0-1.25-0.56-1.25-1.25s0.56-1.25,1.25-1.25h20c0.689,0,1.25,0.56,1.25,1.25S33.189,18.792,32.5,18.792z"/>
    </symbol>
    <symbol id="icon-adelya-loyalty-program" viewBox="0 0 200 200">
        <path fill="#E83669" d="M187.5,72.5c-1.9-2.4-4.5-4-7.6-4.5l-1.3-0.2l-0.8,5.5l1.3,0.2c3.2,0.4,5.5,3.4,5,6.6l-10.5,75.6 c-0.4,3.2-3.4,5.5-6.6,5L33.5,142.2c-3.2-0.4-5.5-3.4-5-6.6l0.2-1.3l-5.5-0.8l-0.2,1.3c-0.4,3,0.4,6.1,2.2,8.5 c1.9,2.4,4.5,4,7.6,4.4l133.6,18.6c0.5,0.1,1.1,0.1,1.6,0.1c5.7,0,10.6-4.3,11.4-9.9L189.7,81C190.2,77.9,189.4,74.9,187.5,72.5z"/>
        <path fill="#303334" d="M151.3,149.9c0.6,0.1,1.3,0.1,1.9,0.1c3.1,0,6.1-1,8.6-2.9c3-2.3,4.9-5.6,5.4-9.4l9.4-71.1	c0.5-3.8-0.5-7.5-2.8-10.5c-2.3-3-5.6-4.9-9.4-5.4l-128.1-17c-3.8-0.5-7.5,0.5-10.5,2.8c-3,2.3-4.9,5.6-5.4,9.4L11,116.9 c-1,7.8,4.4,14.9,12.2,15.9L151.3,149.9z M17,117.7l9.4-71.1c0.3-2.1,1.4-4.1,3.1-5.4c1.4-1.1,3.1-1.7,4.9-1.7c0.4,0,0.7,0,1.1,0.1 l128.1,17c2.1,0.3,4.1,1.4,5.4,3.1c1.3,1.7,1.9,3.9,1.6,6l-9.4,71.1c-0.3,2.2-1.4,4.1-3.1,5.4c-1.7,1.3-3.8,1.9-6,1.6L24,126.8 C19.6,126.3,16.4,122.2,17,117.7z"/>
        <path fill="#303334" d="M33.6,112.6c0.6,0.7,1.4,0.9,2.3,0.8c0.5-0.1,0.9-0.2,1.3-0.4c0.4-0.2,0.9-0.5,1.3-0.8c0.4-0.4,0.8-0.7,1-0.9 c0.3-0.3,0.6-0.6,1-1c1.4-1.6,3.1-3.8,5-6.6c1.2-1.7,2.7-4.2,4.7-7.4c0.1-0.2,0.4-0.6,0.8-1.4c0.4-0.7,0.8-1.3,1-1.7 c-0.2,0.6-0.3,1-0.3,1.3c-0.8,3.2-1.3,5.6-1.7,7.4c-0.6,2.9-0.9,5.3-1,7.2c0,1.1,0,2.1,0.1,3c0.1,0.9,0.5,1.6,1,2.3 c0.6,0.7,1.3,1,2.1,0.9c0.7-0.1,1.4-0.4,2.1-0.9c1.4-1,2.9-2.7,4.5-5.2c1.5-2.3,3-5,4.5-8.2c1.5-3.1,2.7-6.3,3.8-9.5 c1.1-3.3,1.9-6.1,2.3-8.6c0.2-1.3,0.3-2.5,0.4-3.5c0-0.3-0.1-0.6-0.3-0.8c-0.2-0.3-0.4-0.5-0.6-0.6c-0.2-0.1-0.4-0.1-0.6,0 c-0.2,0.1-0.2,0.3-0.3,0.5c0,0.3,0,0.5,0,0.8c0,0.1,0,0.2,0,0.4l0,0l0,0l0,0.2c-0.1,0.6-0.1,1.2-0.3,1.8c-0.2,1.2-0.5,2.6-0.9,4.1 c-0.8,2.9-1.8,5.9-3.1,9.1c-1.3,3.1-2.6,6-4.1,8.8c-1.6,2.9-3.1,5.2-4.5,6.8c-0.2,0.2-0.4,0.4-0.6,0.6c-0.1,0.1-0.2,0.2-0.3,0.2 c0,0-0.1,0.1-0.1,0.1c0,0,0,0.1-0.1,0.1c-0.4,0.4-0.7,0.6-1,0.9c-0.4,0.2-0.7,0.4-1,0.6c0,0-0.1,0-0.2,0.1c0,0,0,0-0.1,0 c0,0-0.1,0-0.1,0c-0.2,0.1-0.3,0.1-0.5,0.1c0,0-0.1,0-0.1,0c0,0-0.1,0-0.1,0c0,0,0,0,0,0c0,0,0,0-0.1,0c0,0,0,0,0-0.1 c0,0,0-0.1,0-0.1c0-0.1,0-0.1,0-0.1c0-0.1,0-0.2-0.1-0.5c0,0,0,0,0-0.1c0-0.1,0-0.2,0-0.3c0-0.7,0-1.6,0.1-2.8l0,0l0,0 c0,0,0-0.1,0-0.1c0,0,0-0.1,0-0.1c0-0.1,0-0.3,0.1-0.4c0-0.3,0-0.6,0.1-0.9c0.1-0.6,0.2-1.2,0.3-1.8c0.3-2,0.9-4.4,1.6-7.4 c0.1-0.4,0.2-0.9,0.4-1.5s0.3-1.1,0.4-1.6c0.1-0.4,0.2-1,0.4-1.5c0.1-0.6,0.3-1.1,0.4-1.6c0,0,0-0.2,0.1-0.6 c0.1-0.4,0.1-0.6,0.2-0.7c0-0.1,0-0.3,0.1-0.6c0-0.3,0-0.6,0-0.7c0-0.2-0.1-0.4-0.1-0.6c-0.1-0.2-0.1-0.4-0.3-0.6 c-0.1-0.2-0.3-0.3-0.5-0.4c-0.1,0-0.2-0.1-0.3-0.1c-0.1,0-0.2,0-0.3,0c-0.1,0-0.1,0.1-0.2,0.1c-0.1,0-0.1,0.1-0.2,0.2 c-0.1,0.1-0.1,0.1-0.2,0.2c0,0.1-0.1,0.1-0.2,0.2c0,0-0.1,0.1-0.1,0.1c-0.3,0.5-0.8,1.2-1.4,2.1c-0.5,0.8-1.2,2-2.2,3.5 c-0.9,1.5-1.5,2.5-1.8,3c-1.9,3-3.5,5.4-4.8,7.3c-0.9,1.2-1.7,2.3-2.5,3.2c-0.4,0.5-0.8,0.9-1.2,1.3c0,0,0,0-0.1,0.1 c0,0-0.1,0.1-0.1,0.1c0,0,0,0-0.1,0.1c-0.1,0.1-0.2,0.2-0.3,0.3c-0.2,0.2-0.4,0.3-0.6,0.5c-0.4,0.3-0.8,0.6-1.1,0.8 c-0.2,0.1-0.3,0.2-0.5,0.3c-0.1,0-0.1,0.1-0.2,0.1c0,0,0,0-0.1,0c0,0,0,0-0.1,0l0,0c-0.2,0-0.3,0.1-0.5,0.1c-0.1,0-0.2,0-0.2,0 c0,0,0,0-0.1,0c-0.2-0.1-0.4-0.1-0.4-0.1c0,0,0,0-0.1,0c0,0,0,0,0-0.1c0,0-0.1,0-0.1,0c0,0,0,0,0-0.1l0-0.1c0-0.1-0.1-0.2-0.1-0.3 c0,0,0-0.1,0-0.2c0,0,0-0.1,0-0.1c0-0.2,0-0.4,0-0.6c0-0.4,0-0.9,0-1.4c0,0,0-0.1,0-0.2c0-0.1,0-0.1,0-0.2c0,0,0-0.1,0-0.1 c0-0.1,0-0.1,0-0.1c0-0.3,0.1-0.5,0.1-0.8c0.1-0.5,0.2-1.1,0.3-1.7c0.2-1.2,0.5-2.5,0.9-3.9c0.7-2.7,1.7-5.6,2.8-8.7 c1.1-2.9,2.3-5.7,3.5-8.3c1.3-2.7,2.5-4.8,3.6-6.4c0.3-0.4,0.5-0.7,0.8-1.1c0.1-0.2,0.2-0.3,0.4-0.4c0.1-0.1,0.1-0.1,0.2-0.2 c0,0,0,0,0-0.1c0,0,0,0,0-0.1l0,0c0.3-0.3,0.3-0.8-0.1-1.3c-0.1-0.2-0.3-0.4-0.6-0.6c-0.3-0.2-0.5-0.2-0.6-0.1 c-1.1,1-2.2,2.6-3.5,4.9c-1.2,2.2-2.4,4.7-3.7,7.7c-1.3,3.1-2.4,6.1-3.3,9c-1,3.1-1.7,5.8-2.2,8.2c-0.5,2.7-0.6,4.7-0.3,6.2 C32.5,111.1,33,111.9,33.6,112.6z"/>
        <path fill="#303334" d="M93,97.1c0.5-0.9,1-1.9,1.6-3.1c0.6-1.1,1-2,1.3-2.6c1.4-2.8,2.3-4.7,2.7-5.7c0.3-0.7,0.4-1.2,0.3-1.6 c-0.1-0.4-0.3-0.7-0.6-1c-0.3-0.3-0.6-0.4-1-0.4c-0.4,0-0.9,0.1-1.5,0.3c-1.3,0.4-2.5,1-3.7,1.8c-1.2,0.8-2.5,1.8-3.9,3 c-2.4,2.1-5.3,4.9-8.7,8.6c-1.1,1.2-2.4,2.6-3.8,4.2c-0.5-0.1-1-0.1-1.4-0.1c-1.8-0.1-3.3-0.2-4.5-0.1c-1.4,0.1-2.4,0.3-2.9,0.6 c-0.3,0.2-0.5,0.5-0.6,0.9c-0.1,0.4,0,0.7,0.1,1.1c0.1,0.3,0.3,0.7,0.6,1c0,0,0.1,0.1,0.1,0.1c0,0,0.1,0.1,0.1,0.1 c0,0.1,0.1,0.1,0.1,0.1c0.1,0.1,0.2,0.3,0.4,0.4c0,0,0,0.1,0.1,0.1c0,0,0.1,0.1,0.1,0.2c0.1,0.1,0.3,0.4,0.5,0.8 c0,0,0.1,0.1,0.1,0.2c0,0.1,0.1,0.2,0.2,0.5c0,0,0,0.1,0.1,0.2c0,0.1,0.1,0.2,0.1,0.3c0,0.2,0,0.3,0,0.3c0,0.1,0,0.2,0,0.3 c0,0.1,0,0.2,0,0.3c-0.7,0.8-1.3,1.5-1.9,2.1c-0.6,0.7-1.2,1.3-1.7,1.8c-0.3,0.3-0.6,0.6-0.8,0.9c-0.1,0.1-0.3,0.3-0.4,0.4 c-0.1,0.1-0.1,0.1-0.2,0.2c0,0.1-0.1,0.1-0.1,0.1c0,0,0,0,0,0c-0.5,0.5-1,0.9-1.4,1.3c-0.2,0.2-0.3,0.5-0.2,0.9 c0.1,0.4,0.3,0.7,0.6,0.9c0.3,0.3,0.6,0.4,0.9,0.2c0.7-0.3,1.5-0.7,2.4-1.2c1.8-1.1,3-2.3,3.8-3.6c0.4-0.7,0.7-1.5,0.8-2.3 c0.7-0.8,1.8-2,3.2-3.6c1.4-1.6,2.4-2.7,3-3.3c0.7,0.1,1.4,0.1,2.2,0.2c1.6,0.2,3.3,0.4,5.1,0.7c0.8,0.1,1.8,0.3,3,0.5 c-0.3,0.7-0.6,1.3-0.8,1.8c-1.5,3.3-2.5,5.9-3,7.9c-0.2,0.7-0.4,1.4-0.5,1.9c-0.1,0.5-0.1,1.1-0.1,1.8s0.2,1.3,0.5,1.8 c0.3,0.5,0.7,0.8,1.1,1c0.2,0.1,0.4,0.1,0.6,0c0.2-0.1,0.2-0.3,0.2-0.5c0-0.2-0.1-0.5-0.2-0.8c-0.1-0.3-0.3-0.5-0.5-0.6 c0-0.1,0-0.1,0-0.1c0-0.2,0-0.3,0-0.5c0,0,0-0.1,0-0.2c0,0,0,0.1,0,0.1c0,0,0-0.1,0-0.2c0-0.1,0-0.1,0-0.2c0.1-0.4,0.2-0.9,0.3-1.4 c0.2-1,0.6-2.1,1.1-3.4c0.2-0.6,0.5-1.3,0.8-2c0-0.1,0.1-0.1,0.1-0.2c0,0,0,0,0-0.1c0,0,0,0,0-0.1c0.1-0.2,0.1-0.4,0.2-0.5 c0.1-0.4,0.3-0.7,0.5-1.1c0.6-1.3,1.2-2.7,1.9-4.2c0.4,0.1,0.8,0.1,1.1,0.2l0.1,0c0.3,0.1,0.4,0,0.5-0.2c0.1-0.2,0.1-0.4,0.1-0.6 c0-0.1-0.1-0.2-0.1-0.3c-0.1-0.1-0.1-0.2-0.2-0.4c-0.1-0.1-0.1-0.2-0.2-0.3c-0.1-0.1-0.2-0.2-0.3-0.2c0.4-0.9,0.9-1.9,1.4-2.9 C92.1,98.9,92.6,98.1,93,97.1z M72.4,104.3c-0.7,0.7-1.1,1.3-1.4,1.6c-0.1,0.1-0.3,0.4-0.6,0.7c-0.1-0.3-0.2-0.6-0.4-0.9 c-0.3-0.7-0.8-1.4-1.3-2.1c-0.1-0.2-0.3-0.4-0.5-0.6c0,0,0.2-0.1,0.4-0.2l0.1,0c0.1,0,0.2,0,0.3-0.1c0.2,0,0.5-0.1,0.8-0.1 c1-0.1,2.4-0.1,4,0C73.6,103,73.1,103.6,72.4,104.3z M84.5,118.7l0.1,0.1L84.5,118.7l0,0.1C84.5,118.8,84.5,118.8,84.5,118.7 L84.5,118.7z M88.1,102.3c-1-0.2-2.1-0.4-3.3-0.5c-2.3-0.4-4.4-0.6-6.2-0.8c0,0,0,0,0.1-0.1c0,0,0,0,0.1-0.1 c3.4-3.8,6.3-6.7,8.7-8.9c1.5-1.4,2.8-2.5,4-3.5c1.2-1,2.5-1.8,3.8-2.5c0.4-0.2,0.8-0.4,1.2-0.6c-0.1,0.2-0.2,0.4-0.2,0.5 c-0.4,0.8-0.9,1.8-1.5,3.1c-0.4,0.7-0.8,1.6-1.3,2.6c-0.5,1-1,2-1.5,2.9c-0.5,0.9-0.9,1.8-1.3,2.6C89.7,99,88.8,100.8,88.1,102.3z"/>
        <path fill="#303334" d="M113.7,96.3c-0.1-0.1-0.2-0.1-0.3-0.1c-0.1,0-0.2,0-0.3,0c-0.1,0-0.1,0.1-0.2,0.1c-0.1,0-0.1,0.1-0.2,0.2 c-0.1,0.1-0.1,0.1-0.2,0.2c0,0.1-0.1,0.1-0.2,0.2c0,0-0.1,0.1-0.1,0.1c-0.3,0.5-0.8,1.2-1.4,2.1c-0.5,0.8-1.2,2-2.2,3.5 c-0.9,1.5-1.5,2.5-1.8,3c-1.9,3-3.5,5.4-4.8,7.3c-0.9,1.2-1.7,2.3-2.5,3.2c-0.4,0.5-0.8,0.9-1.2,1.3c0,0,0,0-0.1,0.1 c0,0-0.1,0.1-0.1,0.1c0,0,0,0-0.1,0.1c-0.1,0.1-0.2,0.2-0.3,0.3c-0.2,0.2-0.4,0.3-0.6,0.5c-0.4,0.3-0.7,0.6-1.1,0.8 c-0.2,0.1-0.3,0.2-0.5,0.3c-0.1,0-0.1,0.1-0.2,0.1c0,0,0,0-0.1,0c0,0,0,0-0.1,0l0,0c-0.2,0-0.3,0.1-0.5,0.1c-0.1,0-0.1,0-0.2,0 c0,0,0,0-0.1,0c-0.2-0.1-0.4-0.1-0.4-0.1c0,0,0,0-0.1,0c0,0,0,0,0-0.1c0,0-0.1,0-0.1,0c0,0,0,0,0-0.1l0-0.1c0-0.1-0.1-0.2-0.1-0.3 c0,0,0-0.1,0-0.2c0,0,0-0.1,0-0.1c0-0.2,0-0.4,0-0.6c0-0.4,0-0.9,0-1.4c0,0,0-0.1,0-0.2c0-0.1,0-0.1,0-0.2c0,0,0-0.1,0-0.1 c0-0.1,0-0.1,0-0.1c0-0.3,0.1-0.5,0.1-0.8c0.1-0.5,0.2-1.1,0.3-1.7c0.2-1.2,0.5-2.5,0.9-3.9c0.7-2.7,1.7-5.6,2.8-8.7 c1.1-2.9,2.3-5.7,3.5-8.3c1.3-2.7,2.5-4.8,3.6-6.4c0.3-0.4,0.5-0.7,0.8-1.1c0.1-0.1,0.2-0.3,0.4-0.4c0.1-0.1,0.1-0.1,0.2-0.2 c0,0,0,0,0-0.1c0,0,0,0,0-0.1l0,0c0.3-0.3,0.3-0.8-0.1-1.3c-0.1-0.2-0.3-0.4-0.6-0.6c-0.3-0.2-0.5-0.2-0.6-0.1 c-1.1,1-2.2,2.6-3.5,4.9c-1.2,2.2-2.4,4.7-3.7,7.7c-1.3,3.1-2.4,6.1-3.3,9c-1,3.1-1.7,5.8-2.2,8.2c-0.5,2.7-0.6,4.7-0.3,6.2 c0.2,0.9,0.6,1.7,1.3,2.4c0.7,0.7,1.4,0.9,2.3,0.8c0.5-0.1,0.9-0.2,1.3-0.4c0.4-0.2,0.9-0.5,1.3-0.8c0.4-0.4,0.8-0.7,1-0.9 c0.3-0.3,0.6-0.6,1-1c1.4-1.6,3.1-3.8,5-6.6c1.2-1.7,2.7-4.2,4.7-7.4c0.1-0.2,0.4-0.6,0.8-1.4c0.4-0.7,0.8-1.3,1-1.7 c-0.2,0.6-0.3,1-0.3,1.3c-0.8,3.2-1.3,5.6-1.7,7.4c-0.6,2.9-0.9,5.3-1,7.2c0,1.1,0,2.1,0.1,3c0.1,0.9,0.5,1.6,1,2.3 c0.6,0.7,1.3,1,2.1,0.9c0.7-0.1,1.4-0.4,2.1-0.9c1.4-1,2.9-2.7,4.5-5.2c1.5-2.3,3-5,4.5-8.2c1.5-3.1,2.7-6.3,3.8-9.5 c1.1-3.3,1.9-6.1,2.3-8.6c0.2-1.3,0.3-2.5,0.4-3.5c0-0.3-0.1-0.6-0.3-0.8c-0.2-0.3-0.4-0.5-0.6-0.6c-0.2-0.1-0.4-0.1-0.6,0 c-0.2,0.1-0.2,0.3-0.3,0.5c0,0.3,0,0.5,0,0.8c0,0.1,0,0.2,0,0.4l0,0l0,0l0,0.2c-0.1,0.6-0.1,1.2-0.3,1.8c-0.2,1.3-0.5,2.6-0.9,4.1 c-0.8,2.9-1.8,5.9-3.1,9.1c-1.3,3.1-2.6,6-4.1,8.8c-1.6,2.9-3.1,5.2-4.5,6.8c-0.2,0.2-0.4,0.4-0.6,0.6c-0.1,0.1-0.2,0.2-0.3,0.2 c0,0-0.1,0.1-0.1,0.1c0,0,0,0.1-0.1,0.1c-0.4,0.4-0.7,0.6-1,0.9c-0.4,0.2-0.7,0.4-1,0.6c0,0-0.1,0-0.2,0.1c0,0,0,0-0.1,0 c0,0-0.1,0-0.1,0c-0.2,0.1-0.3,0.1-0.5,0.1c0,0-0.1,0-0.1,0c0,0-0.1,0-0.1,0c0,0,0,0,0,0c0,0,0,0-0.1,0c0,0,0,0,0-0.1 c0,0,0-0.1,0-0.1c0-0.1,0-0.1,0-0.1c0-0.1,0-0.2-0.1-0.5c0,0,0,0,0-0.1c0-0.1,0-0.2,0-0.3c0-0.7,0-1.6,0.1-2.8l0,0l0,0 c0,0,0-0.1,0-0.1c0,0,0-0.1,0-0.1c0-0.1,0-0.3,0.1-0.4c0-0.3,0-0.6,0.1-0.8c0.1-0.6,0.2-1.2,0.3-1.8c0.3-2,0.9-4.4,1.6-7.4 c0.1-0.4,0.2-0.9,0.4-1.5c0.1-0.6,0.3-1.1,0.4-1.6c0.1-0.4,0.2-1,0.4-1.5c0.1-0.6,0.3-1.1,0.4-1.6c0,0,0-0.2,0.1-0.6 c0.1-0.4,0.1-0.6,0.2-0.7c0-0.1,0-0.3,0.1-0.6c0-0.3,0-0.6,0-0.7c0-0.2-0.1-0.4-0.1-0.6c-0.1-0.2-0.1-0.4-0.3-0.6 C114.1,96.5,113.9,96.4,113.7,96.3z"/>
        <path fill="#303334" d="M43,70.6c0.6,0.8,1.4,1.5,2.2,2c0.9,0.5,1.9,0.9,3,1.1c0.4,0.1,0.9,0.1,1.3,0.1c0.2,0,0.5,0,0.7,0 c0.6,0,1.2-0.2,1.7-0.3c0.5-0.2,1-0.4,1.5-0.7c0.5-0.3,0.9-0.6,1.4-0.9l0.5-0.4l-1.7-2.2l-0.5,0.4c-0.7,0.5-1.4,0.9-2.1,1.2 c-0.7,0.2-1.4,0.3-2.3,0.2c-0.7-0.1-1.3-0.3-1.9-0.7c-0.6-0.3-1-0.8-1.4-1.3c-0.4-0.5-0.6-1.1-0.8-1.8c-0.2-0.7-0.2-1.4-0.1-2.2 c0.1-0.7,0.3-1.4,0.7-2c0.3-0.6,0.8-1.1,1.3-1.5c0.5-0.4,1.1-0.7,1.7-0.9c0.6-0.2,1.3-0.2,2-0.1c0.9,0.1,1.6,0.4,2.2,0.8 c0.6,0.4,1.2,0.9,1.7,1.6l0.4,0.5l2.3-1.9l-0.4-0.5c-0.3-0.4-0.7-0.8-1-1.1c-0.4-0.4-0.8-0.7-1.3-1c-0.5-0.3-1-0.5-1.5-0.7 c-0.5-0.2-1.2-0.3-1.9-0.4c-1.1-0.2-2.2-0.1-3.3,0.2c-1,0.3-1.9,0.8-2.7,1.4c-0.8,0.6-1.5,1.4-2,2.3c-0.5,0.9-0.9,1.9-1,3.1 c-0.2,1.1-0.1,2.2,0.2,3.2C42,68.9,42.4,69.8,43,70.6z"/>
        <path fill="#303334" d="M57.7,74.8l2.2-3.6l7,0.9l1.2,4l3.2,0.4l-5-16.7l-2.4-0.3l-9.3,14.8L57.7,74.8z M61.5,68.6l3-4.8l1.6,5.4 L61.5,68.6z"/>
        <path fill="#303334" d="M76.1,71.6l3.1,0.4l3.4,6.1l3.6,0.5l-3.8-6.7c0.3,0,0.5-0.1,0.8-0.2c0.6-0.2,1.1-0.5,1.6-0.8 c0.5-0.3,0.8-0.8,1.1-1.3c0.3-0.5,0.5-1.1,0.6-1.9c0.1-0.7,0.1-1.3-0.1-1.9c-0.1-0.6-0.4-1.1-0.8-1.6c-0.4-0.6-1-1.1-1.8-1.5 c-0.7-0.4-1.6-0.6-2.5-0.8l-6.8-0.9l-2.1,15.6l2.9,0.4L76.1,71.6z M80.9,64.8c1,0.1,1.8,0.5,2.2,0.9c0.4,0.4,0.6,1,0.5,1.7 c0,0.4-0.2,0.7-0.3,0.9c-0.2,0.3-0.4,0.5-0.7,0.6c-0.3,0.2-0.6,0.3-1,0.3c-0.4,0.1-0.9,0.1-1.3,0l-3.8-0.5l0.6-4.5L80.9,64.8z"/>
        <polygon fill="#303334" points="91,79.3 94,79.7 95.7,66.9 100.5,67.5 100.9,64.7 88.3,63 88,65.8 92.8,66.5"/>
        <polygon fill="#303334" points="112.3,82.2 112.7,79.5 103.8,78.3 104.3,74.5 112.2,75.6 112.5,72.8 104.7,71.8 105.2,68.1 113.9,69.3 114.3,66.6 102.7,65 100.5,80.6"/>
    </symbol>
    <symbol id="icon-loyalty-program" viewBox="0 0 70 58">
        <path id="Layer" fill-rule="evenodd" d="m68.5 27.8q0.1 1-0.2 2-0.3 1-1 1.7-0.6 0.8-1.5 1.3l-45.9 22.9q-0.5 0.3-1 0.4-0.5 0.2-1 0.2-0.5 0-1.1 0-0.5-0.1-1-0.3-0.5-0.1-0.9-0.4-0.5-0.2-0.9-0.6-0.4-0.3-0.7-0.7-0.3-0.4-0.5-0.9l-10.7-21.4c-0.6-1.2-0.7-2.7-0.3-4q0.1-0.5 0.4-0.9 0.2-0.5 0.6-0.9 0.3-0.4 0.7-0.7 0.4-0.3 0.9-0.5l45.8-22.9q0.9-0.5 2-0.5 1-0.1 2 0.2 1 0.4 1.8 1.1 0.8 0.7 1.3 1.6l10.7 21.4q0.4 0.9 0.5 1.9zm-64.4 4l52-25.4-0.5-1c-0.6-1.1-1.7-1.8-2.9-1.8q-0.2 0-0.4 0-0.2 0-0.4 0.1-0.2 0-0.3 0.1-0.2 0-0.4 0.1l-45.9 22.9q-0.6 0.3-1 0.8-0.4 0.5-0.7 1.1-0.2 0.6-0.1 1.3 0 0.6 0.3 1.2zm62.1-5l-8.4-16.8-51.9 25.3 8.6 17.3c0.8 1.7 2.8 2.3 4.4 1.5l45.8-22.9c1.6-0.8 2.3-2.8 1.5-4.4z"/>
        <path id="Layer" fill-rule="evenodd" d="m37.7 29.9q-0.6 0-0.9-0.6c-0.2-0.5 0-1.1 0.4-1.3l17.7-8.8c0.5-0.2 1.1 0 1.3 0.4 0.2 0.5 0 1.1-0.4 1.3l-17.7 8.8c-0.1 0.2-0.3 0.2-0.4 0.2zm2.7 5.5q-0.6 0-0.9-0.6c-0.2-0.5 0-1.1 0.4-1.3l17.7-8.8c0.5-0.2 1.1 0 1.3 0.4 0.2 0.4 0 1.1-0.4 1.3l-17.7 8.8c-0.1 0.2-0.2 0.2-0.4 0.2zm-18.1 4c0 1-0.3 2-1 2.7-0.6 0.6-1.4 0.9-2.2 0.9h-0.3c-0.9-0.1-1.7-0.5-2.4-1.3-1.1-1.2-1.7-2.5-1.6-3.9q0-0.5 0.1-0.9 0.2-0.5 0.4-0.9 0.3-0.4 0.7-0.7 0.4-0.2 0.8-0.4 0.4-0.2 0.9-0.2 0.4-0.1 0.8 0 0.5 0.1 0.9 0.3 0.4 0.2 0.7 0.5l0.9 1 0.4 0.5 0.1 0.4zm-5.4-1.4c0.1 0.8 0.4 1.4 1 2.2l0.8 0.7c0.2 0.1 0.5 0.2 0.7 0.1q0.6-0.1 0.6-0.9c0-0.5-0.2-1-0.5-1.6-0.3-0.5-0.6-1-1.1-1.4l-0.6-0.3-0.3 0.1c-0.3 0.1-0.6 0.3-0.6 1.1zm13.8 4.6q-0.2 0.2-0.4 0.4-0.3 0.2-0.5 0.4-0.3 0.1-0.6 0.2-0.3 0.1-0.6 0.1h-0.3c-1 0-1.9-0.5-2.7-1.4l-0.5-0.7-0.2-0.3v-0.1c-0.4-0.8-0.8-1.8-0.7-3q0.1-0.4 0.2-0.9 0.2-0.4 0.5-0.7 0.3-0.4 0.6-0.7 0.4-0.2 0.8-0.4c1.1-0.4 2.3-0.2 3.2 0.6q0.4 0.4 0.8 0.8 0.4 0.4 0.6 0.9 0.3 0.5 0.5 1.1 0.1 0.5 0.2 1.1c0.1 0.9-0.2 1.8-0.9 2.6zm-4.3-4.2c0 0.6 0.3 1.3 0.8 2.1 0.3 0.5 0.6 0.8 1 1 0.4 0.3 0.6 0.2 0.8 0.1 0.2-0.2 0.4-0.4 0.4-0.9 0-0.6-0.3-1.1-0.6-1.7-0.3-0.5-0.6-1-1-1.3l-0.6-0.3-0.3 0.1c-0.2 0.1-0.5 0.2-0.5 0.9z"/>
        <path id="Layer" d="m24.2 31.7v3.5l-0.1 10.8q0 0.6-0.6 0.9l-0.4 0.2-0.2 0.1-0.2 0.1-0.3-0.1c-0.1-0.1-0.3-0.3-0.2-0.4l0.1-6 0.1-8.3q0-0.7 0.6-0.9l0.4-0.2 0.2-0.1h0.5z"/>
    </symbol>
    <symbol id="icon-x" viewBox="0 0 300 271">
        <path d="m236 0h46l-101 115 118 156h-92.6l-72.5-94.8-83 94.8h-46l107-123-113-148h94.9l65.5 86.6zm-16.1 244h25.5l-165-218h-27.4z"/>
    </symbol>
    <symbol id="icon-clock" viewBox="0 0 31.8 31.8">
        <defs>
            <clipPath id="clip-path">
                <rect id="Rectangle_1773" data-name="Rectangle 1773" width="31.8" height="31.8" fill="#e30f5c"/>
            </clipPath>
        </defs>
        <g id="Groupe_6344" data-name="Groupe 6344" transform="translate(0 0)" clip-path="url(#clip-path)">
            <path id="Tracé_6621" data-name="Tracé 6621" d="M15.68,0A15.68,15.68,0,1,1,0,15.68,15.68,15.68,0,0,1,15.68,0M14.21,7.35v8.33a1.476,1.476,0,0,0,.655,1.225l5.88,3.92a1.471,1.471,0,0,0,1.629-2.45L17.15,14.9V7.35a1.47,1.47,0,1,0-2.94,0" transform="translate(0 0.089)"/>
        </g>
    </symbol>
</svg>
