<svg xmlns="http://www.w3.org/2000/svg" style="display: none;">
    <symbol id="icon-new-window" viewBox="0 0 17.64 17.64">
        <path d="m15.72 10.6a1 1 0 0 0 -1 1v4h-12.72v-12.68h3.73a1 1 0 1 0 0-2h-4.73a1 1 0 0 0 -1 1v14.72a1 1 0 0 0 1 1h14.72a1 1 0 0 0 1-1v-5a1 1 0 0 0 -1-1.04z"/><path d="m16.64 0h-6.44a1 1 0 0 0 0 2h4.1l-6.67 7.05a1 1 0 0 0 0 1.42 1 1 0 0 0 .69.27 1 1 0 0 0 .73-.31l6.55-6.94v4a1 1 0 1 0 2 0v-6.49a1 1 0 0 0 -.96-1z"/>
    </symbol>
    <symbol id="icon-clock" viewBox="0 0 13.44 15.92">
        <path d="m11.88 4.9.4-.4c.25.2.31.19.53 0l.53-.53a.12.12 0 0 0 .05 0 .24.24 0 0 0 -.05-.35l-1-1a.12.12 0 0 0 -.05 0 .24.24 0 0 0 -.35 0c-.18.17-.35.34-.52.52s-.24.29 0 .53l-.42.33a6.8 6.8 0 0 0 -3.52-1.47v-1h.42c.23 0 .32-.08.32-.3v-.93c0-.21-.09-.3-.31-.3h-2.38c-.2 0-.3.09-.3.29v1a.25.25 0 0 0 .29.21h.48v1a6.73 6.73 0 0 0 -1.89.5 7 7 0 0 0 -1.67 1l-.18-.22-.26-.14c.24-.27.24-.35 0-.57l-.53-.52a.09.09 0 0 0 -.06-.06.24.24 0 0 0 -.35 0l-1 1h-.06a.25.25 0 0 0 .06.35l.51.52c.24.23.3.24.52 0l.42.39v.25a6.67 6.67 0 0 0 -.38 7.94 6.57 6.57 0 0 0 4.35 2.86l.81.12h.87l.84-.12a6.71 6.71 0 0 0 5.47-6.27 6.58 6.58 0 0 0 -1.47-4.53zm-5.16 10a5.72 5.72 0 0 1 -5.72-5.71 5.73 5.73 0 0 1 5.72-5.71 5.72 5.72 0 1 1 0 11.44z"/><path d="m8.13 5.28c-.5.93-1 1.86-1.5 2.8a.37.37 0 0 1 -.21.18l-.19.08a1 1 0 1 0 1.36.37.35.35 0 0 1 0-.26c.25-1 .48-1.92.72-2.88 0-.19.06-.38.1-.57z"/>
    </symbol>
    <symbol id="icon-map-marker" viewBox="0 0 12.28 18.64">
        <path d="m9.09 4.61h-1.6v-1.69a.55.55 0 0 0 -.18-.4.53.53 0 0 0 -.41-.16h-1.72a.57.57 0 0 0 -.56.58v1.67h-1.62a.59.59 0 0 0 -.56.59v1.8a.62.62 0 0 0 .18.41.59.59 0 0 0 .4.16h1.6v1.64a.53.53 0 0 0 .18.4.67.67 0 0 0 .4.16h1.73a.57.57 0 0 0 .56-.59v-1.66h1.62a.62.62 0 0 0 .41-.18.56.56 0 0 0 .15-.41v-1.76a.56.56 0 0 0 -.17-.4.62.62 0 0 0 -.41-.16zm-1.89.86h1.62v1.15h-1.63a.57.57 0 0 0 -.56.59v1.66h-1.12v-1.69a.57.57 0 0 0 -.57-.56h-1.61v-1.15h1.67a.57.57 0 0 0 .56-.59v-1.66h1.07v1.69a.57.57 0 0 0 .57.56z"/><path d="m10.49 1.74a6 6 0 0 0 -4.23-1.74 6.11 6.11 0 0 0 -2 .29 6 6 0 0 0 -3.97 7.57 44.24 44.24 0 0 0 3.89 8.34l.44.79.46.84c.13.21.46.77 1 .77s.85-.49 1.14-.92c.13-.21.25-.43.37-.65s.24-.43.36-.63a45.14 45.14 0 0 0 4.05-8.4 5.69 5.69 0 0 0 .33-2 6 6 0 0 0 -1.84-4.26zm-4.16-.84a5.12 5.12 0 0 1 4.13 2.1 5.19 5.19 0 0 1 .68 4.69 47.68 47.68 0 0 1 -3.91 8.31l-.36.64-.37.64a2 2 0 0 1 -.35.5 1 1 0 0 1 -.27-.36c-.21-.41-.43-.8-.67-1.21-.07-.14-.15-.28-.23-.42a40.52 40.52 0 0 1 -3.84-8.2 5 5 0 0 1 -.25-1.66 5.1 5.1 0 0 1 5.11-5.03"/>
    </symbol>
    <symbol id="icon-target" viewBox="0 0 650 554">
        <path d="m324.67 190.33a85.34 85.34 0 1 0 85.33 85.34 85.32 85.32 0 0 0 -85.33-85.34zm190.72 64a191.88 191.88 0 0 0 -169.39-169.33v-85h-42.67v85a191.86 191.86 0 0 0 -169.33 169.33h-134v42.67h134a191.88 191.88 0 0 0 169.33 169.39v87.61h42.67v-87.61a191.9 191.9 0 0 0 169.39-169.39h134.61v-42.67zm-190.72 170.67a149.34 149.34 0 1 1 149.33-149.33 149.36 149.36 0 0 1 -149.33 149.33z"/>
    </symbol>
    <symbol id="icon-round-arrow" viewBox="0 0 35 35">
        <path d="m17.5 0a17.5 17.5 0 1 0 17.5 17.5 17.51 17.51 0 0 0 -17.5-17.5zm9.4 18.6h-16.9l5.5 6.3a1 1 0 0 1 -1.5 1.3l-7-8c-.1-.1-.1-.3-.2-.5a1.42 1.42 0 0 1 .2-.6l7-8a1.14 1.14 0 0 1 .8-.3 1.85 1.85 0 0 1 .7.2 1 1 0 0 1 .1 1.4l-5.4 6.2h16.7a1 1 0 0 1 0 2z"/>
    </symbol>
    <symbol id="icon-link-arrow" viewBox="0 0 24.55 16.67">
        <path d="m24.28 7.79-6.93-7.47a1 1 0 0 0 -1.47 1.36l5.37 5.79h-20.25a1 1 0 0 0 0 2h20l-5.89 5.46a1 1 0 0 0 -.05 1.42 1 1 0 0 0 .73.32 1 1 0 0 0 .68-.27l7.53-6.93a.8.8 0 0 0 .13-.19.64.64 0 0 0 .14-.08 1 1 0 0 0 .01-1.41z"/>
    </symbol>
    <symbol id="icon-caret" viewBox="0 0 14.03 9.15">
        <path class="cls-1" d="M7.09,9.15a1,1,0,0,1-.76-.35L.24,1.65A1,1,0,0,1,1.76.35L7.08,6.6,12.26.36A1,1,0,1,1,13.8,1.64L7.86,8.79a1,1,0,0,1-.76.36Z"/>
    </symbol>
    <symbol id="icon-search" viewBox="0 0 19.67 19.54">
        <path d="m19.38 17.83c-3.32-3.31-3.72-3.73-4-4.07s-.45-.48-1.73-1.77l-.08-.05a7.54 7.54 0 1 0 -1.37 1.42.13.13 0 0 1 0 .05c1.26 1.25 1.46 1.47 1.7 1.72s.73.78 4.07 4.12a1 1 0 0 0 .71.29 1 1 0 0 0 .71-.29 1 1 0 0 0 -.01-1.42zm-11.88-4.83a5.5 5.5 0 1 1 5.5-5.5 5.51 5.51 0 0 1 -5.5 5.5z"/>
    </symbol>
    <symbol id="icon-search-primary" viewBox="0 0 19.67 19.54" fill="#619a1b">
        <path d="m19.38 17.83c-3.32-3.31-3.72-3.73-4-4.07s-.45-.48-1.73-1.77l-.08-.05a7.54 7.54 0 1 0 -1.37 1.42.13.13 0 0 1 0 .05c1.26 1.25 1.46 1.47 1.7 1.72s.73.78 4.07 4.12a1 1 0 0 0 .71.29 1 1 0 0 0 .71-.29 1 1 0 0 0 -.01-1.42zm-11.88-4.83a5.5 5.5 0 1 1 5.5-5.5 5.51 5.51 0 0 1 -5.5 5.5z"/>
    </symbol>
    <symbol id="icon-pickup" viewBox="0 0 11.77 12.02">
        <path d="m11 3.73h-2.88v-2.91a.82.82 0 0 0 -.82-.82h-2.83a.82.82 0 0 0 -.82.82v2.91h-2.83a.84.84 0 0 0 -.82.83v2.9a.82.82 0 0 0 .82.82h2.83v2.92a.82.82 0 0 0 .82.82h2.83a.82.82 0 0 0 .82-.82v-2.92h2.88a.82.82 0 0 0 .82-.82v-2.9a.84.84 0 0 0 -.82-.83zm-.33 3.4h-2.89a.82.82 0 0 0 -.78.87v2.92h-2.2v-2.92a.82.82 0 0 0 -.8-.87h-2.85v-2.24h2.85a.82.82 0 0 0 .81-.82v-2.92h2.19v2.92a.82.82 0 0 0 .81.82h2.84z"/>
    </symbol>
    <symbol id="icon-drive" viewBox="0 0 17.89 12.97">
        <path d="m9.54 7.66-.1-.06v-1.77a1.43 1.43 0 0 0 -1.44-1.44h-4.79a1.44 1.44 0 0 0 -1.44 1.44v1.77l-.1.06-.09-.85h-1.58v.81l1.59.09a1.1 1.1 0 0 0 -.49.89v1.63a1.13 1.13 0 0 0 .6 1v1.1c0 .37.43.67 1 .67s1-.3 1-.67v-.91h3.71v.91c0 .37.44.67 1 .67s1-.3 1-.67v-1a1.17 1.17 0 0 0 .77-1v-1.72a1.1 1.1 0 0 0 -.49-.89l1.59-.09v-.82h-1.65zm-7.19-1.83a.86.86 0 0 1 .86-.83h4.79a.86.86 0 0 1 .86.87v1.59h-6.51zm4.84 3.73v.44h-3v-.44zm-5.13.55v-1.26h1.73v1.26zm2 .94a.24.24 0 0 1 -.24-.24.24.24 0 0 1 .18-.24.23.23 0 0 1 .24.24.23.23 0 0 1 -.23.24zm3.4 0a.24.24 0 0 1 -.24-.24.24.24 0 0 1 .24-.24.23.23 0 0 1 .24.24.23.23 0 0 1 -.23.24zm2-.94h-1.81v-1.26h1.74z"/><path d="m15.1 2.62a1 1 0 1 1 -1.95 0 1 1 0 0 1 1.95 0z"/><path d="m12.25 0v2.5h.38v-2.11h4.87v6.2h-2.14v-1.59a.87.87 0 0 0 -.88-.88.57.57 0 0 0 -.22 0h-.05l-3.21 1.34a.52.52 0 0 0 .19 1 .5.5 0 0 0 .2-.08l2.21-.88v1.08h-1v-.24h-.39v6.33h5.64v-12.67zm4.52 10.06h-1.32v1.32h-.7v-1.31h-1.33v-.7h1.33v-1.37h.7v1.36h1.32z"/>
    </symbol>
    <symbol id="icon-reactive-badge" viewBox="0 0 16.23 16.24">
        <path d="m16.1 9.5a.62.62 0 0 0 0-.78c-.09-.11-.43-.4-.44-.57s.32-.44.41-.57c.38-.54 0-.88-.42-1.2-.24-.17-.26-.2-.14-.47a1.52 1.52 0 0 0 .23-.8c-.09-.45-.62-.5-1-.67s.26-1.06-.22-1.44a1.76 1.76 0 0 0 -.81-.2c-.33 0-.28-.15-.32-.45a1.31 1.31 0 0 0 -.21-.7c-.22-.25-.57-.18-.85-.14s-.37.11-.48 0a3.56 3.56 0 0 1 -.25-.6c-.31-.56-.78-.38-1.27-.15-.23.1-.26.11-.42-.09a1.81 1.81 0 0 0 -.5-.6.67.67 0 0 0 -.77.13c-.13.1-.39.4-.55.38s-.38-.32-.49-.39a.65.65 0 0 0 -.81-.09c-.24.17-.32.48-.54.65s-.44-.07-.65-.15c-.72-.27-.91.24-1.15.8-.11.26-.23.19-.48.15a1.38 1.38 0 0 0 -.7 0 .62.62 0 0 0 -.36.55c0 .21 0 .6-.18.72s-.56 0-.77.11a.57.57 0 0 0 -.44.54c0 .26.12.54.09.79s-.19.19-.38.26c-.59.21-.85.48-.58 1.15 0 .12.26.39.19.53s-.38.27-.5.36c-.52.44-.34.84.05 1.28.21.25.23.27 0 .53a1.45 1.45 0 0 0 -.42.7c0 .5.5.6.76.9s-.05.47-.14.68a.73.73 0 0 0 0 .73 1.47 1.47 0 0 0 .69.38.86.86 0 0 1 .28.11c.07.1 0 .35 0 .45a1.05 1.05 0 0 0 0 .76.87.87 0 0 0 .71.29c.15 0 .42 0 .5.12s0 .56.11.79c.17.6.78.44 1.24.37.27 0 .25.12.35.34s.18.56.44.69.6 0 .86-.15.31-.21.47 0c.37.44.65 1 1.28.55.2-.14.44-.48.68-.33s.37.33.59.44a.57.57 0 0 0 .68-.09 3.76 3.76 0 0 0 .25-.31c.06-.08.2-.34.3-.37s.43.18.57.23a.72.72 0 0 0 .76 0 1.38 1.38 0 0 0 .31-.57c.09-.21.09-.42.35-.4.47 0 1.06.27 1.26-.33q.06-.36.09-.72c0-.23.23-.19.44-.21a1.3 1.3 0 0 0 .67-.16.73.73 0 0 0 .19-.78c0-.12-.05-.24-.06-.37s0-.15.1-.23.59-.17.81-.39a.64.64 0 0 0 .12-.71c-.08-.21-.36-.56-.2-.75.22-.24.51-.33.67-.53zm-3.87-2.39c-.45.45-1.51 1.54-1.86 1.88.11.69.35 2.12.44 2.64a.22.22 0 0 1 -.08.2.21.21 0 0 1 -.12 0 .15.15 0 0 1 -.09 0l-1.2-.63-1.16-.6-2.36 1.23a.19.19 0 0 1 -.28-.21c0-.21.33-2 .44-2.63-.46-.43-1.48-1.45-1.9-1.88a.17.17 0 0 1 0-.2.18.18 0 0 1 .16-.13l2.57-.38 1.21-2.4a.19.19 0 0 1 .27-.08.2.2 0 0 1 .06.08l1.19 2.4 2.6.38a.19.19 0 0 1 .16.22.22.22 0 0 1 -.05.11z"/>
    </symbol>
    <symbol id="icon-close" viewBox="0 0 979.95 978.68">
        <path d="m571.53 499.34 413.47-413.01a50.52 50.52 0 1 0 -71.41-71.47l-413.59 413.05-413.65-413.04a50.52 50.52 0 1 0 -71.44 71.44l413.51 413-413.49 413a50.49 50.49 0 0 0 35.6 86.34 50.12 50.12 0 0 0 35.81-14.87l413.66-413.01 413.63 413.06a50.65 50.65 0 0 0 35.87 14.85 50.52 50.52 0 0 0 35.5-86.32z"/>
    </symbol>
    <symbol id="icon-express" viewBox="0 0 29.18 15.11">
        <path d="m23.42 3.44c.45.05.59-.38.63-.64.07-.56-.12-1-.48-1h-.76l.08.29c.11.44.23.87.36 1.28a.25.25 0 0 0 .17.07z"/><path d="m26.62 9.74a4.33 4.33 0 0 0 -3.84.2 2.44 2.44 0 0 0 -1 1.08h6.14a2.52 2.52 0 0 0 -1.3-1.28z"/><path d="m9.08 9.31a1.42 1.42 0 0 0 0 .5.59.59 0 0 0 .43.35h2.76a.4.4 0 0 0 .46-.35s0-.08 0-.08a2.91 2.91 0 0 0 0-.3v-.24h-3.63z"/><path d="m12.78 7.87v-.15c0-.16 0-.48-.41-.48h-2.49v1h2.53a.35.35 0 0 0 .37-.38z"/><path d="m29.16 11.88a3.82 3.82 0 0 0 -1.27-2.49 4 4 0 0 0 -3.11-1 .28.28 0 0 1 -.18 0 .25.25 0 0 1 -.1-.15c-.1-.39-.2-.78-.31-1.17l-.08-.33c-.12-.47-.25-.93-.37-1.4l-.21-.8h.13a1.25 1.25 0 0 0 1.26-1.18 5.74 5.74 0 0 0 .08-1.36 1.33 1.33 0 0 0 -1.38-1.26c-.33 0-.61 0-.88 0a.25.25 0 0 1 -.19 0s0-.06 0-.12c0-.37-.25-.56-.68-.56h-2.38a.39.39 0 0 0 -.3.09.4.4 0 0 0 -.19.23 2.26 2.26 0 0 0 0 .26v.36h.74 1.51a.32.32 0 0 1 .36.29c.65 2.31 1.27 4.71 1.89 7.02.05.19 0 .21-.16.27a3.78 3.78 0 0 0 -2.61 2.22.4.4 0 0 1 -.44.27h-13.13a5.83 5.83 0 0 1 3.35-5l-.06-.28c-.94 0-1.77-.06-2.54 0-.18 0-.4 0-.44 0a1.06 1.06 0 0 1 0-.39v-.24a1 1 0 0 1 0-.33s.25 0 .35 0h9v.14c0 .2-.08.38-.11.59s-.12.2-.27.21h-1.2c-.32 0-.5.11-.56.38a5.14 5.14 0 0 0 .42 3.38 2.57 2.57 0 0 0 1 1.11l.12.08.55-.75-.1-.09a3.46 3.46 0 0 1 -1-3.12h1.31a.46.46 0 0 0 .5-.35l.39-1.52.25-1h-11.12c-.43 0-.56.13-.56.57v1.67c0 .55.06.61.6.61h.9l-.22.26a7 7 0 0 0 -1.72 4.63.47.47 0 0 0 .1.33.52.52 0 0 0 .39.11h22.18.31.2zm-6.35-10.12h.76c.36.06.55.47.48 1 0 .26-.18.69-.63.64a.25.25 0 0 1 -.17-.11c-.13-.41-.25-.84-.36-1.28zm5.08 9.24h-6.14a2.44 2.44 0 0 1 1-1.08 4.33 4.33 0 0 1 3.84-.2 2.52 2.52 0 0 1 1.3 1.28z"/><path d="m13.82 12.2h-.06a.46.46 0 0 0 -.48.44 1.68 1.68 0 0 1 -.52 1 1.71 1.71 0 0 1 -1.76.36 1.55 1.55 0 0 1 -1.13-1.3.63.63 0 0 0 -.22-.44.4.4 0 0 0 -.32 0c-.23 0-.37 0-.45.12a.37.37 0 0 0 -.06.3 2.74 2.74 0 0 0 2.71 2.48h.07a2.7 2.7 0 0 0 2.67-2.33.57.57 0 0 0 -.07-.46.47.47 0 0 0 -.38-.17z"/><path d="m3.5 9.07h-3a.5.5 0 0 0 -.5.5.5.5 0 0 0 .5.5h3a.5.5 0 0 0 .5-.5.5.5 0 0 0 -.5-.5z"/><path d="m4.5 7.07h-3a.5.5 0 0 0 -.5.5.5.5 0 0 0 .5.5h3a.5.5 0 0 0 .5-.5.5.5 0 0 0 -.5-.5z"/><path d="m27.43 12.2h-.06a.47.47 0 0 0 -.48.44 1.68 1.68 0 0 1 -.52 1 1.71 1.71 0 0 1 -1.78.35 1.55 1.55 0 0 1 -1.11-1.29.63.63 0 0 0 -.22-.44.4.4 0 0 0 -.32 0c-.22 0-.37 0-.45.12a.37.37 0 0 0 -.06.3 2.74 2.74 0 0 0 2.72 2.48h.06a2.7 2.7 0 0 0 2.67-2.33.57.57 0 0 0 -.07-.46.47.47 0 0 0 -.38-.17z"/>
    </symbol>
    <symbol id="icon-postal" viewBox="0 0 18.7 15.9">
        <path d="m18.7 2.4-7.6-2.4-1.8 1.5-1.6-1.2-7.7 3 2.5 2.2-2.1 3.2.4.3 2 .9v2.7l.1.1 6.2 3.2 6.9-3.5v-3.7l1.7-.9.5-.2-1.9-3zm-7.6-1.3 5.4 1.7-1.3 1.3h-.1c-1.5-.5-4.2-1.4-5.3-1.8zm2.5 3.6-4.4 2.1c-.1 0-2.6-1-4.3-1.7l4.3-1.9c.6.2 2.8.9 4.4 1.5zm-11.9-1.1 5.5-2.2 1.2.9-5.4 2.5zm0 4.7 1.8-2.8c3 1.3 4.4 1.9 5.1 2.1l-1.3 3.1m7.9 1.2-6 3-5.2-2.6v-1.1l4.3 1.9.9-2.3.8 1.9 5.2-2.7zm1.4-4.6c-1.3.6-4.6 2.4-5.9 3.1l-1.2-2.7 5.6-2.6z"/>
    </symbol>
    <symbol id="icon-check" viewBox="0 0 13.83 9.05">
        <path d="m5 9.05a.76.76 0 0 1 -.53-.3l-4.32-5.67a.75.75 0 0 1 .15-1.08.74.74 0 0 1 1.05.15l3.77 5 7.45-7a.75.75 0 0 1 1 1.1l-8.03 7.6a.74.74 0 0 1 -.54.2z"/>
    </symbol>
    <symbol id="icon-preparation-time" viewBox="0 0 8.98 12.65">
        <path d="m4.59 7.77 2.41 2.7a.14.14 0 0 1 0 .19h-.09-4.73a.13.13 0 0 1 -.13-.13.12.12 0 0 1 0-.09l2.31-2.7a.13.13 0 0 1 .19 0z"/><path d="m4.39 5.77-1.24-1.77a.12.12 0 0 1 0-.17h.07 2.49a.13.13 0 0 1 .12.12.14.14 0 0 1 0 .07l-1.24 1.75a.12.12 0 0 1 -.16 0z"/><path d="m8.66 11.88h-8.34a.32.32 0 0 1 -.32-.32.41.41 0 0 1 .05-.18l3.49-5.05-3.49-5.06a.32.32 0 0 1 .09-.44.3.3 0 0 1 .18-.06h8.34a.32.32 0 0 1 .34.33.27.27 0 0 1 -.06.17l-3.5 5.06 3.48 5.05a.33.33 0 0 1 -.08.45.41.41 0 0 1 -.18.05zm-7.73-.64h7.12l-3.27-4.73a.35.35 0 0 1 0-.37l3.27-4.73h-7.12l3.26 4.73a.32.32 0 0 1 0 .37z"/><path d="m8.53 12.65h-8.08a.32.32 0 0 1 -.32-.32.32.32 0 0 1 .32-.33h8.08a.32.32 0 0 1 .32.32.32.32 0 0 1 -.32.33z"/><path d="m8.53.64h-8.08a.32.32 0 0 1 -.32-.32.32.32 0 0 1 .32-.32h8.08a.32.32 0 0 1 .32.32.32.32 0 0 1 -.32.32z"/>
    </symbol>
    <symbol id="icon-calendar" viewBox="0 0 918.72 980.01">
        <path d="m249.83 1.62c-42.13 21.11-32.77 24.12-34.6 119 1.19 90.4-7.86 110.9 47.08 120.11 19.41 0 35-9.8 43.62-27.1 4.42-9 4.42-9.23 4.42-91.67 0-91.48 0-91.67-12.3-105.31s-32.27-19.84-48.22-15.03z"/><path d="m640.33 2.2c-10 3.46-24.6 17.68-28.64 28.06-3.07 8.26-3.46 16.34-3.46 91.67v82.64c18 47 72.66 48.65 94.17 4.22l.6-84.79c.38-75.14.19-85.71-2.69-93.21-7.93-24.1-37.07-35.07-59.98-28.59z"/><path d="m61.11 125.38c-22.87 7.88-41.7 24-52.27 45-9.03 17.84-8.84 7.62-8.84 378.37 0 241 .58 351.49 2.11 359.37 4.42 24.41 22.1 49.2 43.43 60.73 21.52 11.92-3.84 11.15 413.76 11.15 417.41 0 392.23.58 413.56-11s39.2-36.71 43.63-60.92c3.07-16.33 2.88-702.21 0-716.43-6.92-32.67-32.09-59.58-64-68-7.11-1.92-24.21-2.69-64-2.69h-54.38v40.74c0 28.44-.77 44-2.69 50.73a80.44 80.44 0 0 1 -43 52.08c-10 5-12.88 5.38-32.09 5.38-20 0-21.91-.38-34-6.34-16.14-7.88-32.09-24.6-38.24-40.17-4.23-10.38-4.61-14.41-5.19-56.88l-.65-45.5h-238.1v41.89c0 32.67-.77 44.2-3.07 52.47-6.15 20.95-22.68 40-42.66 49.39-9.8 4.61-13.26 5.19-32.09 5.19-19.22 0-22.1-.38-32.09-5.38-22.24-11-38.82-31.56-43.62-54.82-1.15-5.57-2.11-27.87-2.11-49.39v-39.35h-55.15c-52.68.15-55.95.35-68.25 4.38zm797.53 515.8c-.58 259.44-.58 262.9-4.42 268.09a41.56 41.56 0 0 1 -9.61 8.65c-5.57 3.27-20.56 3.46-385.31 3.46h-379.55l-6.92-4.38c-14.22-8.84-13.26 12.3-13.26-277.89v-260.63h799.43z"/>
    </symbol>
</svg>