<?xml version="1.0" encoding="utf-8"?>
<!-- Generator: Adobe Illustrator 26.0.3, SVG Export Plug-In . SVG Version: 6.00 Build 0)  -->
<svg version="1.1" id="Calque_1" xmlns="http://www.w3.org/2000/svg" xmlns:xlink="http://www.w3.org/1999/xlink" x="0px" y="0px"
	 viewBox="0 0 566.2 160.4" style="enable-background:new 0 0 566.2 160.4;" xml:space="preserve">
<style type="text/css">
	.st0{fill:#3C3C3B;}
	.st1{fill:#D42D40;}
</style>
<path class="st0" d="M12.1,49h19.5c5.8,0,10.5-1.3,14.1-3.9c3.6-2.6,5.4-6.7,5.4-12.2c0-5.5-1.8-9.6-5.4-12.2
	c-3.6-2.6-8.3-3.9-14.1-3.9H12.1V49z M0.6,6.1h28.9c4.5,0,8.8,0.4,12.9,1.3c4.1,0.9,7.7,2.3,10.9,4.4c3.2,2.1,5.7,4.8,7.6,8.3
	c1.9,3.4,2.8,7.7,2.8,12.7c0,5.3-1,9.7-3,13.2c-2,3.5-4.6,6.2-7.8,8.3c-3.2,2-6.6,3.4-10.4,4.3c-3.8,0.8-7.3,1.2-10.7,1.2H12.1v43.8
	H0.6V6.1z"/>
<path class="st1" d="M119.2,11.4L119.2,11.4C119.2,11.4,119.2,11.4,119.2,11.4 M91.4,53.6c-4.7,8.8-4.8,18-0.2,25.7
	c5.3,8.9,15.8,14.5,27.4,14.5c0.1,0,0.1,0,0.2,0c11.6,0,22.2-5.4,27.5-14.2c4.7-7.7,4.7-16.8,0.2-25.7l-27.7-42L91.4,53.6z
	 M118.8,104.2h-0.3c-15.3-0.1-29.2-7.6-36.3-19.6c-6.4-10.9-6.4-24,0.1-36.1l0.2-0.4l28-42.4c1.8-2.8,4.9-4.5,8.3-4.5h0
	c3.3,0,6.4,1.7,8.3,4.5l28.5,43.3c6.3,12.1,6.2,25.3-0.4,36.1C148,96.8,134,104.2,118.8,104.2"/>
<path class="st0" d="M195.5,92.8h22c5.6,0,10.8-0.7,15.6-2.2c4.8-1.5,8.9-3.7,12.4-6.8c3.5-3.1,6.2-7,8.3-11.8c2-4.8,3-10.5,3-17.2
	c0-6.7-1-12.4-3-17.2c-2-4.8-4.8-8.7-8.3-11.8c-3.5-3.1-7.6-5.3-12.4-6.8c-4.8-1.5-10-2.2-15.6-2.2h-22V92.8z M184,6.1h37.4
	c3.2,0,6.6,0.4,10.2,1.1c3.6,0.7,7.1,1.9,10.7,3.5c3.5,1.6,6.9,3.7,10.2,6.3c3.3,2.6,6.1,5.7,8.6,9.3c2.5,3.6,4.5,7.8,5.9,12.5
	c1.5,4.7,2.2,10.1,2.2,16c0,6-0.7,11.3-2.2,16c-1.5,4.7-3.4,8.9-5.9,12.5c-2.5,3.6-5.3,6.7-8.6,9.3c-3.3,2.6-6.7,4.7-10.2,6.3
	c-3.5,1.6-7.1,2.8-10.7,3.5c-3.6,0.7-7,1.1-10.2,1.1H184V6.1z"/>
<polygon class="st0" points="291.6,6.1 352.8,6.1 352.8,16.8 303.1,16.8 303.1,47.4 334.2,47.4 334.2,58.1 303.1,58.1 303.1,92.8 
	355.3,92.8 355.3,103.6 291.6,103.6 "/>
<path class="st0" d="M388.6,49h10.3c3.2,0,6.5-0.1,10-0.3c3.4-0.2,6.6-0.8,9.5-1.8c2.9-1,5.3-2.6,7.2-4.7c1.9-2.2,2.8-5.3,2.8-9.3
	c0-3.5-0.7-6.3-2.1-8.4c-1.4-2.1-3.2-3.7-5.4-4.9c-2.2-1.1-4.8-1.9-7.6-2.3c-2.8-0.4-5.6-0.6-8.5-0.6h-16.2V49z M377,6.1h24.9
	c4.7,0,9.3,0.3,14,0.8c4.6,0.6,8.8,1.7,12.5,3.6c3.7,1.8,6.7,4.5,8.9,8.1c2.3,3.5,3.4,8.3,3.4,14.4c0,7.2-2.2,12.9-6.5,17.3
	c-4.3,4.4-10.3,7.2-17.9,8.4l27.7,44.9h-14.2l-26.4-43.8h-14.9v43.8H377V6.1z"/>
<polygon class="st0" points="565.6,6.1 548.8,6.1 515.5,61.5 515.2,61.5 482.2,6.1 465,6.1 465,103.5 476.5,103.5 476.5,21.8 
	476.8,21.8 511.8,76.8 518.8,76.8 553.7,21.8 554,21.8 554,103.5 565.6,103.5 "/>
<path class="st0" d="M151,144.5h4.1c1.1,0,2.1-0.1,2.9-0.4c0.8-0.2,1.4-0.5,1.9-0.9c0.5-0.4,0.8-0.8,1-1.4c0.2-0.5,0.3-1.1,0.3-1.7
	c0-0.6-0.1-1.2-0.3-1.7c-0.2-0.5-0.6-1-1-1.4c-0.5-0.4-1.1-0.7-1.9-0.9c-0.8-0.2-1.8-0.3-2.9-0.3H151V144.5z M148.5,133.4h7.3
	c2.5,0,4.6,0.6,6,1.7c1.5,1.1,2.2,2.8,2.2,5s-0.7,3.9-2.2,5c-1.5,1.1-3.5,1.7-6,1.7H151v11.6h-2.5V133.4z"/>
<path class="st0" d="M172.4,144.5h4.5c1.1,0,2.1-0.1,2.9-0.4c0.8-0.2,1.4-0.5,1.9-0.9c0.5-0.4,0.8-0.9,1-1.4
	c0.2-0.5,0.3-1.1,0.3-1.7c0-0.6-0.1-1.2-0.3-1.7c-0.2-0.5-0.6-1-1-1.4c-0.5-0.4-1.1-0.7-1.9-0.9c-0.8-0.2-1.8-0.3-2.9-0.3h-4.5
	V144.5z M172.4,158.5h-2.5v-25.1h7.7c2.5,0,4.6,0.6,6,1.7c1.5,1.1,2.2,2.8,2.2,5c0,1.7-0.5,3.2-1.6,4.4c-1.1,1.2-2.7,1.9-4.8,2.1
	l7.2,11.9h-3.1l-6.9-11.6h-4.2V158.5z"/>
<path class="st0" d="M213.6,146c0-1.4-0.2-2.8-0.7-4.1c-0.5-1.3-1.1-2.5-2-3.5c-0.9-1-2-1.8-3.2-2.4c-1.3-0.6-2.7-0.9-4.3-0.9
	c-1.6,0-3,0.3-4.3,0.9c-1.3,0.6-2.4,1.4-3.2,2.4c-0.9,1-1.6,2.1-2,3.5c-0.5,1.3-0.7,2.7-0.7,4.1c0,1.4,0.2,2.8,0.7,4.1
	c0.5,1.3,1.2,2.5,2,3.5c0.9,1,2,1.8,3.2,2.4c1.3,0.6,2.7,0.9,4.3,0.9c1.6,0,3-0.3,4.3-0.9c1.3-0.6,2.4-1.4,3.2-2.4
	c0.9-1,1.6-2.1,2-3.5C213.3,148.8,213.6,147.4,213.6,146 M216.3,146c0,1.9-0.3,3.7-1,5.3c-0.7,1.6-1.6,3-2.7,4.2
	c-1.2,1.2-2.5,2.1-4.1,2.7c-1.6,0.7-3.3,1-5.2,1s-3.6-0.3-5.2-1c-1.6-0.7-3-1.6-4.1-2.7c-1.2-1.2-2.1-2.6-2.7-4.2
	c-0.7-1.6-1-3.4-1-5.3c0-1.9,0.3-3.7,1-5.3c0.7-1.6,1.6-3,2.7-4.2c1.2-1.2,2.5-2.1,4.1-2.7c1.6-0.7,3.3-1,5.2-1s3.6,0.3,5.2,1
	c1.6,0.7,3,1.6,4.1,2.7c1.2,1.2,2.1,2.6,2.7,4.2C216,142.3,216.3,144,216.3,146"/>
<polygon class="st0" points="225,158.5 222.5,158.5 222.5,133.4 237.6,133.4 237.6,135.8 225,135.8 225,144.3 236.7,144.3 
	236.7,146.6 225,146.6 "/>
<polygon class="st0" points="245.8,156.2 259.2,156.2 259.2,158.5 243.2,158.5 243.2,133.4 258.8,133.4 258.8,135.8 245.8,135.8 
	245.8,144.3 257.9,144.3 257.9,146.6 245.8,146.6 "/>
<path class="st0" d="M277.2,137.6c-1.1-1.6-2.7-2.4-4.9-2.4c-0.7,0-1.3,0.1-1.9,0.3c-0.6,0.2-1.2,0.4-1.7,0.8
	c-0.5,0.4-0.9,0.8-1.2,1.4c-0.3,0.6-0.5,1.3-0.5,2c0,1.1,0.3,2,1,2.6c0.6,0.6,1.4,1.1,2.4,1.5c0.9,0.4,2,0.8,3.1,1.1
	c1.1,0.3,2.2,0.7,3.1,1.3c0.9,0.5,1.7,1.2,2.4,2.1c0.6,0.9,1,2.1,1,3.6c0,1.1-0.2,2.2-0.7,3.1c-0.5,0.9-1.1,1.7-1.9,2.3
	c-0.8,0.6-1.7,1.1-2.7,1.4c-1,0.3-2,0.5-3,0.5c-1.5,0-3-0.3-4.4-0.9c-1.4-0.6-2.6-1.5-3.5-2.8l2.3-1.7c0.5,0.9,1.3,1.7,2.3,2.2
	c1,0.6,2.1,0.8,3.4,0.8c0.6,0,1.3-0.1,1.9-0.3c0.6-0.2,1.2-0.5,1.7-0.9c0.5-0.4,0.9-0.9,1.3-1.4c0.3-0.6,0.5-1.2,0.5-1.9
	c0-0.9-0.2-1.6-0.6-2.2c-0.4-0.6-0.8-1.1-1.5-1.4c-0.6-0.4-1.3-0.7-2.1-1c-0.8-0.3-1.6-0.5-2.4-0.8c-0.8-0.3-1.6-0.6-2.4-0.9
	c-0.8-0.3-1.5-0.7-2.1-1.3s-1.1-1.1-1.5-1.9c-0.4-0.8-0.5-1.7-0.5-2.9c0-1.2,0.2-2.3,0.7-3.2c0.5-0.9,1.1-1.6,1.8-2.2
	c0.8-0.6,1.6-1,2.6-1.3c1-0.3,2-0.4,3-0.4c1.4,0,2.7,0.2,3.9,0.7c1.2,0.5,2.2,1.2,3.2,2.4L277.2,137.6z"/>
<path class="st0" d="M297.9,137.6c-1.1-1.6-2.7-2.4-4.9-2.4c-0.7,0-1.3,0.1-1.9,0.3c-0.6,0.2-1.2,0.4-1.7,0.8
	c-0.5,0.4-0.9,0.8-1.2,1.4c-0.3,0.6-0.5,1.3-0.5,2c0,1.1,0.3,2,1,2.6c0.6,0.6,1.4,1.1,2.4,1.5s2,0.8,3.1,1.1
	c1.1,0.3,2.2,0.7,3.1,1.3c0.9,0.5,1.7,1.2,2.4,2.1c0.6,0.9,1,2.1,1,3.6c0,1.1-0.2,2.2-0.7,3.1c-0.5,0.9-1.1,1.7-1.9,2.3
	c-0.8,0.6-1.7,1.1-2.7,1.4c-1,0.3-2,0.5-3,0.5c-1.5,0-3-0.3-4.4-0.9c-1.4-0.6-2.6-1.5-3.5-2.8l2.3-1.7c0.5,0.9,1.3,1.7,2.3,2.2
	c1,0.6,2.1,0.8,3.4,0.8c0.6,0,1.3-0.1,1.9-0.3c0.6-0.2,1.2-0.5,1.7-0.9c0.5-0.4,0.9-0.9,1.3-1.4c0.3-0.6,0.5-1.2,0.5-1.9
	c0-0.9-0.2-1.6-0.6-2.2c-0.4-0.6-0.8-1.1-1.5-1.4c-0.6-0.4-1.3-0.7-2.1-1c-0.8-0.3-1.6-0.5-2.4-0.8c-0.8-0.3-1.6-0.6-2.4-0.9
	c-0.8-0.3-1.5-0.7-2.1-1.3c-0.6-0.5-1.1-1.1-1.5-1.9c-0.4-0.8-0.5-1.7-0.5-2.9c0-1.2,0.2-2.3,0.7-3.2c0.5-0.9,1.1-1.6,1.8-2.2
	c0.8-0.6,1.6-1,2.6-1.3c1-0.3,2-0.4,3-0.4c1.4,0,2.7,0.2,3.9,0.7c1.2,0.5,2.2,1.2,3.2,2.4L297.9,137.6z"/>
<rect x="306.8" y="133.4" class="st0" width="2.5" height="25.1"/>
<path class="st0" d="M338.9,146c0-1.4-0.2-2.8-0.7-4.1c-0.5-1.3-1.1-2.5-2-3.5c-0.9-1-2-1.8-3.2-2.4c-1.3-0.6-2.7-0.9-4.3-0.9
	c-1.6,0-3,0.3-4.3,0.9c-1.3,0.6-2.4,1.4-3.2,2.4c-0.9,1-1.6,2.1-2,3.5c-0.5,1.3-0.7,2.7-0.7,4.1c0,1.4,0.2,2.8,0.7,4.1
	c0.5,1.3,1.2,2.5,2,3.5c0.9,1,2,1.8,3.2,2.4c1.3,0.6,2.7,0.9,4.3,0.9c1.6,0,3-0.3,4.3-0.9c1.3-0.6,2.4-1.4,3.2-2.4
	c0.9-1,1.6-2.1,2-3.5C338.7,148.8,338.9,147.4,338.9,146 M341.7,146c0,1.9-0.3,3.7-1,5.3c-0.7,1.6-1.6,3-2.7,4.2
	c-1.2,1.2-2.5,2.1-4.1,2.7c-1.6,0.7-3.3,1-5.2,1c-1.9,0-3.6-0.3-5.2-1c-1.6-0.7-3-1.6-4.1-2.7c-1.2-1.2-2.1-2.6-2.7-4.2
	c-0.7-1.6-1-3.4-1-5.3c0-1.9,0.3-3.7,1-5.3c0.7-1.6,1.6-3,2.7-4.2c1.2-1.2,2.5-2.1,4.1-2.7c1.6-0.7,3.3-1,5.2-1c1.9,0,3.6,0.3,5.2,1
	c1.6,0.7,3,1.6,4.1,2.7c1.2,1.2,2.1,2.6,2.7,4.2C341.3,142.3,341.7,144,341.7,146"/>
<polygon class="st0" points="365.9,154.7 366,154.7 366,133.4 368.6,133.4 368.6,158.5 365.4,158.5 350.4,137 350.4,137 
	350.4,158.5 347.8,158.5 347.8,133.4 351,133.4 "/>
<path class="st0" d="M381.4,149.6h10.9l-5.4-13.2L381.4,149.6z M377.7,158.5h-3l10.9-25.1h2.5l10.9,25.1h-3l-2.8-6.6h-12.8
	L377.7,158.5z"/>
<polygon class="st0" points="406,156.2 417.7,156.2 417.7,158.5 403.5,158.5 403.5,133.4 406,133.4 "/>
</svg>
