<?xml version="1.0" encoding="utf-8"?>
<!-- Generator: Adobe Illustrator 22.0.1, SVG Export Plug-In . SVG Version: 6.00 Build 0)  -->
<svg version="1.1" id="Calque_1" xmlns="http://www.w3.org/2000/svg" xmlns:xlink="http://www.w3.org/1999/xlink" x="0px" y="0px"
	 viewBox="0 0 179 31" style="enable-background:new 0 0 179 31;" xml:space="preserve">
<style type="text/css">
	.st0{fill:#17479E;}
</style>
<g id="surface1">
	<path class="st0" d="M43.3,30.8c-3.3-0.1-6.4-0.9-9.2-2.8c-3.1-2.2-5-5.2-5.8-9c-0.9-4.2-0.4-8.2,1.8-12c2-3.3,4.9-5.5,8.6-6.5
		c4-1.1,7.9-0.9,11.7,0.8c4.7,2.2,7.4,6,8.2,11c0.7,4,0.1,7.8-2,11.3c-2.2,3.6-5.4,5.8-9.5,6.6C45.9,30.5,44.6,30.6,43.3,30.8z
		 M51.9,15.1c0-0.4,0-1-0.1-1.6c-0.4-2.6-1.5-4.8-3.8-6.3c-1.7-1.1-3.6-1.4-5.6-1.2c-2.9,0.3-5.1,1.7-6.4,4.3
		c-1.3,2.6-1.4,5.4-0.7,8.2c0.5,2,1.5,3.6,3.2,4.8c2.1,1.4,4.4,1.7,6.8,1.2c1.6-0.3,2.9-1.1,4-2.2C51.2,20.3,51.9,17.9,51.9,15.1z"
		/>
	<path class="st0" d="M99.5,29.8c0-9.7,0-19.4,0-29.1c0.2,0,0.4,0,0.5,0c3.9,0,7.7,0,11.6,0c3.4,0,6.4,1.2,8.5,4
		c3.3,4.4,2.7,12-2.4,15.3c-0.3,0.2-0.6,0.3-0.9,0.6c1.7,3.1,3.4,6.1,5.1,9.2c-0.2,0-0.3,0-0.4,0c-2.2,0-4.5,0-6.7,0
		c-0.4,0-0.5-0.1-0.7-0.4c-1.3-2.4-2.7-4.8-4.1-7.2c-0.2-0.3-0.3-0.4-0.7-0.4c-1,0-2,0-3.1,0c0,2.7,0,5.3,0,8
		C103.9,29.8,101.8,29.8,99.5,29.8z M106.2,16.2c0.1,0,0.2,0,0.3,0c1.4,0,2.8,0,4.2,0c0.6,0,1.2-0.1,1.7-0.3
		c2.1-0.8,3.3-3.1,2.9-5.5c-0.4-2.3-1.7-4-3.8-4.2c-1.8-0.2-3.6,0-5.4,0C106.2,9.6,106.2,12.9,106.2,16.2z"/>
	<path class="st0" d="M85,20.7c1.7,3,3.3,6.1,5,9.2c-0.6,0-1.1,0-1.6,0c-1.8,0-3.6,0-5.5,0c-0.4,0-0.6-0.1-0.8-0.5
		c-1.3-2.4-2.7-4.8-4-7.2c-0.2-0.3-0.4-0.4-0.7-0.4c-1,0-2,0-3,0c0,2.7,0,5.3,0,8c-2.2,0-4.4,0-6.7,0c0-9.7,0-19.4,0-29.1
		c0.2,0,0.4,0,0.6,0c3.9,0,7.9,0,11.8,0c5.5,0.1,9.6,3.9,10.1,9.3c0.3,3.5-0.6,6.5-3.1,8.9C86.6,19.6,85.8,20.1,85,20.7z M74.4,16.2
		c1.7,0,3.3,0,4.9,0c1.2,0,2.3-0.6,3.1-1.5c1.1-1.3,1.3-2.7,1.1-4.4c-0.3-2.4-2.1-4.1-4.5-4.1c-1.4,0-2.8,0-4.2,0
		c-0.1,0-0.3,0-0.4,0C74.4,9.6,74.4,12.9,74.4,16.2z"/>
	<path class="st0" d="M6.8,13.5c1.9-2.5,3.7-5.1,5.6-7.6C13.6,4.3,14.8,2.7,16,1c0.1-0.2,0.4-0.3,0.6-0.3c2.4,0,4.9,0,7.3,0
		c0,0,0.1,0,0.2,0.1c-3.8,4.8-7.6,9.6-11.3,14.4c3.8,4.9,7.5,9.7,11.3,14.7c-0.3,0-0.4,0-0.6,0c-2.2,0-4.5,0-6.7,0
		c-0.5,0-0.8-0.2-1.1-0.5c-2.9-3.9-5.8-7.9-8.7-11.8c-0.1-0.1-0.2-0.3-0.4-0.5c0,4.3,0,8.5,0,12.7c-2.2,0-4.4,0-6.7,0
		c0-9.7,0-19.4,0-29.1c2.2,0,4.4,0,6.6,0c0,4.3,0,8.5,0,12.8C6.7,13.5,6.8,13.5,6.8,13.5z"/>
	<path class="st0" d="M178.3,9.1c-2.2,0-4.4,0-6.5,0c-0.2-0.7-0.2-1.4-0.5-2c-0.5-1.3-1.6-2-2.9-2.1c-0.7,0-1.4,0-2,0.1
		c-1.1,0.2-1.9,0.9-2.1,2c-0.2,1.1,0.1,2.2,1.1,2.9c0.8,0.6,1.7,1,2.6,1.4c1.8,0.8,3.7,1.5,5.6,2.3c2.5,1.1,4.4,2.7,5,5.5
		c0.8,3.3,0.3,6.3-2.2,8.7c-1.6,1.5-3.5,2.3-5.6,2.6c-2.6,0.4-5.1,0.2-7.6-0.6c-3.4-1.2-5.4-3.6-6-7.1c-0.1-0.8-0.2-1.5-0.3-2.4
		c2.3,0,4.5,0,6.7,0c0.1,0.5,0.1,1.1,0.2,1.7c0.5,2.1,2.3,3.4,4.6,3.3c0.5,0,1.1-0.1,1.6-0.2c1.3-0.3,2.1-1.2,2.2-2.5
		c0.1-1.3-0.2-2.4-1.4-3.1c-0.7-0.4-1.4-0.8-2.2-1.1c-1.8-0.8-3.7-1.4-5.5-2.2c-2.4-1-4.3-2.5-5-5.1c-1.4-4.7,0.6-9.1,5.5-10.6
		c3.3-1,6.7-1,9.9,0.5C176.5,2.4,178.3,5.5,178.3,9.1z"/>
	<path class="st0" d="M149,6.1c-3.7,0-7.3,0-10.9,0c0,2.2,0,4.4,0,6.6c3.6,0,7.2,0,10.9,0c0,1.8,0,3.5,0,5.3c-3.6,0-7.2,0-10.9,0
		c0,2.1,0,4.2,0,6.4c3.6,0,7.2,0,10.9,0c0,1.8,0,3.6,0,5.4c-5.9,0-11.7,0-17.6,0c0-9.7,0-19.4,0-29.1c5.9,0,11.7,0,17.6,0
		C149,2.5,149,4.3,149,6.1z"/>
</g>
</svg>
