<?xml version="1.0" encoding="utf-8"?>
<!-- Generator: Adobe Illustrator 19.1.0, SVG Export Plug-In . SVG Version: 6.00 Build 0)  -->
<svg version="1.1" id="Calque_1" xmlns="http://www.w3.org/2000/svg" xmlns:xlink="http://www.w3.org/1999/xlink" x="0px" y="0px"
	 viewBox="0 0 260.1 67.6" enable-background="new 0 0 260.1 67.6" xml:space="preserve">
<g>
	<polyline fill-rule="evenodd" clip-rule="evenodd" fill="#55951B" points="27.5,1 27.5,4 6.6,4 6.6,20.2 20.6,20.2 20.6,23.1 
		6.6,23.1 6.6,43.5 27.5,43.5 27.5,46.5 0,46.5 0,1 27.5,1 	"/>
	<polyline fill-rule="evenodd" clip-rule="evenodd" fill="#55951B" points="34.9,1 41.5,1 41.5,43.5 61.4,43.5 61.4,46.5 34.9,46.5 
		34.9,1 	"/>
	<path fill-rule="evenodd" clip-rule="evenodd" fill="#55951B" d="M72.9,28.4h14.6l-7.2-18L72.9,28.4z M82.9,0l18.6,46.5h-6.8
		l-6.1-15.2h-17l-6.2,15.2h-3.3L81.2,0H82.9z"/>
	<polyline fill-rule="evenodd" clip-rule="evenodd" fill="#55951B" points="106.6,1 110.3,1 136.3,34.2 136.5,34.2 136.5,1 139.4,1 
		139.4,47.5 137.9,47.5 109.8,10.6 109.6,10.6 109.6,46.5 106.6,46.5 106.6,1 	"/>
	<path fill-rule="evenodd" clip-rule="evenodd" fill="#55951B" d="M155.5,23.9c0,3.2,0.4,6.1,1.2,8.6c0.8,2.5,2,4.7,3.4,6.4
		c1.5,1.7,3.2,3.1,5.2,4c2,0.9,4.2,1.4,6.5,1.4c1.4,0,2.7-0.3,4-0.9c1.3-0.6,2.5-1.4,3.6-2.4c1.1-1,2.1-2.1,3-3.4
		c0.9-1.2,1.6-2.5,2.2-3.8l2.8,2.1c-0.8,1.5-1.8,3-2.9,4.4c-1.1,1.4-2.4,2.7-3.8,3.7c-1.5,1.1-3.1,1.9-4.9,2.6c-1.8,0.7-3.9,1-6.2,1
		c-2.2,0-4.2-0.3-6.2-0.9c-1.9-0.6-3.7-1.4-5.3-2.4c-1.6-1-3.1-2.3-4.3-3.7c-1.3-1.5-2.4-3.1-3.2-4.8c-0.9-1.7-1.6-3.6-2-5.6
		c-0.5-2-0.7-4.1-0.7-6.2c0-2.1,0.2-4.2,0.7-6.2c0.5-2,1.2-3.9,2.1-5.7c0.9-1.8,2-3.4,3.3-4.9c1.3-1.5,2.8-2.7,4.4-3.8
		c1.6-1.1,3.4-1.9,5.4-2.5c2-0.6,4-0.9,6.2-0.9c2.1,0,4,0.3,5.8,1c1.8,0.7,3.4,1.5,4.9,2.6c1.5,1.1,2.8,2.3,3.9,3.7
		c1.1,1.4,2.1,2.9,2.9,4.4l-2.9,2.2c-1.7-3.7-3.5-6.4-5.6-8.1c-2-1.7-4.4-2.6-7-2.6c-2.3,0-4.4,0.5-6.4,1.4c-2,1-3.7,2.3-5.2,4.1
		c-1.5,1.8-2.6,3.9-3.5,6.5C155.9,17.8,155.5,20.7,155.5,23.9"/>
	<polyline fill-rule="evenodd" clip-rule="evenodd" fill="#55951B" points="197.5,1 211.2,24.1 224.9,1 228.5,1 213.2,26.8 
		213.2,46.5 206.5,46.5 206.5,27.5 190.7,1 197.5,1 	"/>
	<polyline fill-rule="evenodd" clip-rule="evenodd" fill="#55951B" points="233.6,1 240.2,1 240.2,43.5 260.1,43.5 260.1,46.5 
		233.6,46.5 233.6,1 	"/>
	<polyline fill-rule="evenodd" clip-rule="evenodd" fill="#55951B" points="0,56.5 1.2,56.5 1.2,66.3 7.4,66.3 7.4,67.4 0,67.4 
		0,56.5 	"/>
	<path fill-rule="evenodd" clip-rule="evenodd" fill="#55951B" d="M16.7,63.5l-2.5-5.6l-2.5,5.6H16.7z M13.7,56.5h1.2l5,11h-1.3
		l-1.3-2.9h-5.9L10,67.4H8.7L13.7,56.5z"/>
	<path fill-rule="evenodd" clip-rule="evenodd" fill="#55951B" d="M26.8,66.3c0.8,0,1.5-0.2,2-0.5c0.5-0.3,0.7-0.8,0.7-1.4v0
		c0-0.6-0.2-1.1-0.7-1.4c-0.5-0.3-1.2-0.5-2.2-0.5h-3.4v3.9H26.8z M26.3,61.4c0.7,0,1.3-0.2,1.8-0.5c0.5-0.3,0.7-0.8,0.7-1.5v0
		c0-0.5-0.2-1-0.6-1.3c-0.4-0.3-1-0.5-1.8-0.5h-3.3v3.7H26.3z M21.9,56.5h4.6c0.6,0,1.2,0.1,1.7,0.3c0.5,0.2,0.9,0.4,1.2,0.7
		c0.5,0.5,0.7,1.1,0.7,1.7v0c0,0.4,0,0.7-0.1,0.9c-0.1,0.3-0.2,0.5-0.4,0.7c-0.2,0.2-0.3,0.4-0.6,0.5c-0.2,0.1-0.4,0.3-0.6,0.3
		c0.3,0.1,0.6,0.2,0.9,0.4c0.3,0.2,0.5,0.3,0.7,0.5c0.2,0.2,0.4,0.5,0.5,0.7c0.1,0.3,0.2,0.6,0.2,1v0c0,0.5-0.1,0.9-0.3,1.3
		c-0.2,0.4-0.5,0.7-0.8,0.9c-0.3,0.3-0.8,0.5-1.2,0.6c-0.5,0.1-1,0.2-1.6,0.2h-4.8V56.5z"/>
	<path fill-rule="evenodd" clip-rule="evenodd" fill="#55951B" d="M38.2,66.5c0.6,0,1.2-0.1,1.7-0.4c0.5-0.2,1-0.6,1.3-1
		c0.4-0.4,0.7-0.9,0.9-1.4c0.2-0.5,0.3-1.1,0.3-1.7v0c0-0.6-0.1-1.2-0.3-1.8c-0.2-0.5-0.5-1-0.9-1.4c-0.4-0.4-0.8-0.7-1.4-1
		c-0.5-0.2-1.1-0.4-1.7-0.4c-0.6,0-1.2,0.1-1.7,0.4c-0.5,0.2-1,0.6-1.3,1c-0.4,0.4-0.7,0.9-0.9,1.4c-0.2,0.5-0.3,1.1-0.3,1.7v0
		c0,0.6,0.1,1.2,0.3,1.8c0.2,0.5,0.5,1,0.9,1.4c0.4,0.4,0.8,0.7,1.4,1C37,66.4,37.6,66.5,38.2,66.5z M38.2,67.6
		c-0.8,0-1.6-0.2-2.3-0.5c-0.7-0.3-1.3-0.7-1.7-1.2c-0.5-0.5-0.9-1.1-1.1-1.8c-0.3-0.7-0.4-1.4-0.4-2.1v0c0-0.7,0.1-1.5,0.4-2.2
		c0.3-0.7,0.6-1.3,1.1-1.8c0.5-0.5,1.1-0.9,1.8-1.2c0.7-0.3,1.4-0.5,2.3-0.5c0.8,0,1.6,0.2,2.3,0.5c0.7,0.3,1.3,0.7,1.7,1.2
		c0.5,0.5,0.9,1.1,1.1,1.8c0.3,0.7,0.4,1.4,0.4,2.1c0,0,0,0,0,0c0,0.7-0.1,1.5-0.4,2.2c-0.3,0.7-0.6,1.3-1.1,1.8
		c-0.5,0.5-1.1,0.9-1.8,1.2C39.8,67.5,39,67.6,38.2,67.6z"/>
	<path fill-rule="evenodd" clip-rule="evenodd" fill="#55951B" d="M50.9,62.1c0.4,0,0.8-0.1,1.1-0.2c0.3-0.1,0.6-0.3,0.9-0.4
		c0.2-0.2,0.4-0.4,0.6-0.7c0.1-0.3,0.2-0.6,0.2-0.9v0c0-0.7-0.2-1.2-0.7-1.6c-0.5-0.4-1.2-0.6-2.1-0.6h-3.4v4.4H50.9z M46.4,56.5H51
		c0.7,0,1.3,0.1,1.8,0.3c0.5,0.2,1,0.5,1.3,0.8c0.3,0.3,0.5,0.6,0.6,1c0.1,0.4,0.2,0.8,0.2,1.2v0c0,0.5-0.1,0.9-0.2,1.2
		c-0.1,0.4-0.3,0.7-0.6,0.9c-0.3,0.3-0.6,0.5-0.9,0.7c-0.4,0.2-0.8,0.3-1.2,0.4l3.3,4.5h-1.5l-3.2-4.2h-3.1v4.2h-1.2V56.5z"/>
	<path fill-rule="evenodd" clip-rule="evenodd" fill="#55951B" d="M62.8,56.5h-1.2l-5,11h1.3l1.3-2.9h5.9l1.3,2.9h1.3L62.8,56.5z
		 M59.7,63.5l2.5-5.6l2.5,5.6H59.7z"/>
	<polyline fill-rule="evenodd" clip-rule="evenodd" fill="#55951B" points="71.5,57.7 67.9,57.7 67.9,56.5 76.4,56.5 76.4,57.7 
		72.7,57.7 72.7,67.4 71.5,67.4 71.5,57.7 	"/>
	<path fill-rule="evenodd" clip-rule="evenodd" fill="#55951B" d="M82.9,66.5c0.6,0,1.2-0.1,1.7-0.4c0.5-0.2,1-0.6,1.3-1
		c0.4-0.4,0.7-0.9,0.9-1.4c0.2-0.5,0.3-1.1,0.3-1.7v0c0-0.6-0.1-1.2-0.3-1.8c-0.2-0.5-0.5-1-0.9-1.4c-0.4-0.4-0.8-0.7-1.4-1
		c-0.5-0.2-1.1-0.4-1.7-0.4c-0.6,0-1.2,0.1-1.7,0.4c-0.5,0.2-1,0.6-1.3,1c-0.4,0.4-0.7,0.9-0.9,1.4c-0.2,0.5-0.3,1.1-0.3,1.7v0
		c0,0.6,0.1,1.2,0.3,1.8c0.2,0.5,0.5,1,0.9,1.4c0.4,0.4,0.8,0.7,1.4,1C81.7,66.4,82.2,66.5,82.9,66.5z M82.8,67.6
		c-0.8,0-1.6-0.2-2.3-0.5c-0.7-0.3-1.3-0.7-1.7-1.2c-0.5-0.5-0.9-1.1-1.1-1.8c-0.3-0.7-0.4-1.4-0.4-2.1v0c0-0.7,0.1-1.5,0.4-2.2
		c0.3-0.7,0.6-1.3,1.1-1.8c0.5-0.5,1.1-0.9,1.8-1.2c0.7-0.3,1.4-0.5,2.3-0.5c0.8,0,1.6,0.2,2.3,0.5c0.7,0.3,1.3,0.7,1.7,1.2
		c0.5,0.5,0.9,1.1,1.1,1.8c0.3,0.7,0.4,1.4,0.4,2.1c0,0,0,0,0,0c0,0.7-0.1,1.5-0.4,2.2c-0.3,0.7-0.6,1.3-1.1,1.8
		c-0.5,0.5-1.1,0.9-1.8,1.2C84.4,67.5,83.7,67.6,82.8,67.6z"/>
	<rect x="91.1" y="56.5" fill-rule="evenodd" clip-rule="evenodd" fill="#55951B" width="1.2" height="10.9"/>
	<path fill-rule="evenodd" clip-rule="evenodd" fill="#55951B" d="M100.1,62.1c0.4,0,0.8-0.1,1.1-0.2s0.6-0.3,0.9-0.4
		c0.2-0.2,0.4-0.4,0.6-0.7c0.1-0.3,0.2-0.6,0.2-0.9v0c0-0.7-0.2-1.2-0.7-1.6c-0.5-0.4-1.2-0.6-2.1-0.6h-3.4v4.4H100.1z M95.5,56.5
		h4.7c0.7,0,1.3,0.1,1.8,0.3c0.5,0.2,1,0.5,1.3,0.8c0.3,0.3,0.5,0.6,0.6,1c0.1,0.4,0.2,0.8,0.2,1.2v0c0,0.5-0.1,0.9-0.2,1.2
		c-0.1,0.4-0.3,0.7-0.6,0.9c-0.3,0.3-0.6,0.5-0.9,0.7c-0.4,0.2-0.8,0.3-1.2,0.4l3.3,4.5H103l-3.2-4.2h-3.1v4.2h-1.2V56.5z"/>
	<polyline fill-rule="evenodd" clip-rule="evenodd" fill="#55951B" points="106.8,56.5 114.6,56.5 114.6,57.6 108,57.6 108,61.4 
		113.9,61.4 113.9,62.5 108,62.5 108,66.3 114.7,66.3 114.7,67.4 106.8,67.4 106.8,56.5 	"/>
</g>
</svg>
